<svg id="Capa_1" enable-background="new 0 0 511.995 511.995" height="512" viewBox="0 0 511.995 511.995" width="512" xmlns="http://www.w3.org/2000/svg"><g><g><path d="m456.719 504.559c4.344 0 7.639-3.916 6.897-8.196l-4.298-24.784c-4.84-27.96-25.01-50.78-52.11-58.95l-58.098-15.007-16.197-1.081-15.227-7.036-121.368.003-89.53 25.12c-27.1 8.17-47.27 30.99-52.11 58.95l-5.298 21.784c-.742 4.28 2.553 8.196 6.897 8.196l6.531 1h43.69l35.011-2.316 37.989 2.316h152l35.415-3.167 37.585 3.167h52.221z" fill="#f9f8f9"/><path d="m349.109 397.622-7.442 9.907c-.52.69-12.9 17.15-27.05 33.88-27.63 32.66-41.75 43.15-58.09 43.15-16.41 0-30.06-10.03-58.42-42.94-14.41-16.71-27.05-33.15-27.58-33.84l-7.33-10.23 16.098-.838 15.022-7.202h123.37z" fill="#a9e8d1"/><path d="m313.463 327.5-1.444 20.956 3.638 11.263 2.029 29.786s-48.888 65.054-61.154 65.054-62.214-65.05-62.214-65.05l5.871-26.244-1.366-39.044z" fill="#f6d190"/><path d="m174.718 413.154-65.061 16.806c-20.54 6.32-35.56 23.42-39.24 44.7l-7.61 29.9h-7.531c-4.344 0-7.639-3.916-6.897-8.196l4.298-24.784c4.84-27.96 25.01-50.78 52.11-58.95l58.409-15.083 8.694 5.804z" fill="#e8e8e8"/><path d="m206.557 404.929-31.84 8.22c-2.49-3.16-4.01-5.14-4.19-5.37l-7.33-10.23 31.12-8.04 7.786 5.096z" fill="#92e0c4"/><path d="m127.497 187.106h-6.582c-17.103 0-30.967 13.907-30.967 31.062 0 23.663 19.124 42.845 42.714 42.845h246.671c23.59 0 42.714-19.182 42.714-42.845 0-17.155-13.865-31.062-30.967-31.062h-6.582z" fill="#ecbd83"/><path d="m315.657 359.719-2.19-32.22-114.64-3.28-4.51 65.29s5.01 6.52 12.24 15.42c2.878-.74 4.958-3.241 5.163-6.205l.637-9.215 1.004-14.548c.189-2.732 2.994-4.442 5.532-3.413 12.464 5.054 24.868 7.611 37.104 7.611 19.6 0 39.64-6.53 59.66-19.44z" fill="#ecbd83"/><path d="m381.593 137.509c-.034 1.885 2.466 11 2.466 11-.064 10.917-.112 26.103-.124 31.82-.002.858-2.172 16.467-2.172 16.467l1.913 13.463c-.92 35.311-5.035 54.928-22.911 79.759-5.93 8.237-12.143 15.96-18.572 23.057 0 0-3.654 1.774-5.089 3.275-25.584 26.749-53.443 41.383-81.106 41.383-28.649 0-57.461-15.271-83.723-43.702-.531-.574-2.505-.992-2.505-.992-6.417-7.087-12.619-14.798-18.538-23.02-18.118-25.166-22.1-44.977-22.947-81.199l1.799-12.864s-2.019-15.242-2.017-16.605c.012-6.305.048-20.486.095-30.84 0 0 1.789-9.1 1.815-11z" fill="#f6d190"/><path d="m384.157 137.509-127.293-6.67-128.627 6.67c-.02 1.9-.046 6-.076 11h80.151c.984 0 1.893.492 2.462 1.295 10.152 14.331 26.86 23.705 45.723 23.705s35.571-9.374 45.723-23.705c.569-.803 1.478-1.295 2.462-1.295h79.377c.03-5.01.068-9.12.098-11z" fill="#ecbd83"/><path d="m179.497 489.509v15.05h-59l-13-1v-13.05c0-2.76 2.24-5 5-5l8-1h54c2.76 0 5 2.24 5 5z" fill="#a9e8d1"/><path d="m404.497 489.509v15.05h-59l-13-1v-13.05c0-2.76 2.24-5 5-5l8-1h54c2.76 0 5 2.24 5 5z" fill="#a9e8d1"/><path d="m120.497 484.509v20.05h-14v-15.05c0-2.76 2.24-5 5-5z" fill="#92e0c4"/><path d="m345.497 484.509v20.05h-14v-15.05c0-2.76 2.24-5 5-5z" fill="#92e0c4"/><path d="m342.193 313.075c-26.65 29.41-56.975 48.084-86.195 48.084-29.23 0-59.58-18.69-86.23-48.12.5-1.17.83-1.93.86-2.02 5.23-14.13 9.42-30.66 9.53-62.27 0-.15-.002-1.373.008-2.913 6.49 2.35 13.422 3.623 20.502 3.623h111.66c6.71 0 13.3-1.12 19.5-3.23v2.23c.09 32.17 4.39 48.77 9.72 63.05.019.05.265.656.645 1.566z" fill="#f9f8f9"/><path d="m129.082 97.506c0-24.997 14.767-56.995 23.191-77.773 3.879-8.708 12.351-13.265 21.468-11.34l4.684.564 45.558 9.62c21.124 4.46 42.906 4.479 64.037.056l51.146-10.707c9.093-1.904 18.26 2.873 22.146 11.547 7.302 16.297 22.841 51.244 22.841 78.034l-128.173 7.461z" fill="#f9f8f9"/><path d="m128.236 137.511h255.919v-40.005h-255.919l5.017 23.678z" fill="#a9e8d1"/><path d="m178.426 8.956c-4.7 1.89-8.669 5.593-10.898 10.583-8.42 20.78-23.29 52.97-23.29 77.97l-8.517 3.415-7.483-3.415c0-25 14.87-57.19 23.29-77.97 3.88-8.71 13.08-13.5 22.2-11.58z" fill="#e8e8e8"/><path d="m128.237 97.509h16v40h-16z" fill="#92e0c4"/><path d="m212.231 117.509c0 24.853 19.413 43.628 44.266 43.628 15.374 0 28.806-6.408 36.923-18.173.199-.289.73-.803.73-.803 4.645-7.081 7.347-15.551 7.347-24.652 0-24.853-20.147-45-45-45-9.115 0-17.596 2.71-24.683 7.368 0 0-.314.345-.523.487-11.884 8.1-19.06 21.679-19.06 37.145z" fill="#e8e8e8"/><path d="m294.15 142.161c-8.04 12.25-21.903 20.348-37.653 20.348-24.85 0-45-20.15-45-45 0-15.75 8.094-29.61 20.344-37.65-4.65 7.08-7.344 15.55-7.344 24.65 0 24.85 20.15 45 45 45 9.1 0 17.573-2.698 24.653-7.348z" fill="#dcdbdd"/><circle cx="256.497" cy="117.509" fill="#f9f8f9" r="15"/></g><g><path d="m115.278 417.629c4.011-1.036 6.422-5.126 5.387-9.137s-5.127-6.423-9.137-5.387c-.367.1-8.306 2.134-8.89 2.302-30.004 9.046-51.972 33.894-57.329 64.843l-5.72 32.977c-.708 4.081 2.027 7.963 6.108 8.671 3.176.562 7.383-1.377 8.671-6.108l5.72-32.979c4.375-25.274 22.277-45.569 46.739-53z"/><path d="m304.579 198.041c-4.142 0-7.5 3.358-7.5 7.5v17.065c0 4.142 3.358 7.5 7.5 7.5s7.5-3.358 7.5-7.5v-17.065c0-4.142-3.358-7.5-7.5-7.5z"/><path d="m207.415 198.041c-4.142 0-7.5 3.358-7.5 7.5v17.065c0 4.142 3.358 7.5 7.5 7.5s7.5-3.358 7.5-7.5v-17.065c0-4.142-3.358-7.5-7.5-7.5z"/><path d="m472.406 503.228-5.719-32.974c-5.358-30.952-27.325-55.8-57.33-64.846-.096-.029-.192-.056-.29-.081l-84.273-21.768-2.817-41.356c15.567-12.154 30.769-28.255 44.864-47.832 6.448-8.957 11.198-17.357 14.711-25.94 26.654-1.175 47.978-23.276 47.978-50.284 0-21.141-17.062-38.356-38.106-38.55.088-25.69.292-58.345.218-82.1 0-28.655-16.464-65.402-23.495-81.093-5.356-11.956-17.908-18.461-30.524-15.82l-51.141 10.706c-20.224 4.233-40.729 4.216-60.945-.053l-50.254-10.612c-12.661-2.67-25.242 3.85-30.594 15.862-.965 2.362-3.204 7.778-5.006 12.106-1.585 3.827.231 8.214 4.058 9.8 3.827 1.585 8.214-.232 9.799-4.059 1.698-4.095 2.648-6.352 4.897-11.846 2.471-5.425 8.106-8.38 13.747-7.187l50.254 10.611c22.264 4.7 44.846 4.72 67.117.058l51.141-10.706c5.659-1.183 11.314 1.807 13.763 7.271 6.005 13.405 19.3 43.082 21.779 67.46h-75.049c-9.255-14.984-25.824-24.994-44.692-24.994s-35.437 10.01-44.692 24.994h-75.6c.76-6.794 2.492-14.534 5.267-23.47 1.229-3.956-.982-8.158-4.938-9.387-3.954-1.226-8.158.982-9.387 4.938-4.306 13.864-6.399 25.449-6.399 35.419.058 23.79-.103 56.879-.17 82.1-21.047.19-38.113 17.406-38.113 38.55 0 27.008 21.324 49.109 47.978 50.284 3.512 8.583 8.263 16.984 14.711 25.94 14.109 19.597 29.327 35.71 44.911 47.869l-2.852 41.321-41.767 10.786c-4.01 1.036-6.422 5.126-5.386 9.137.873 3.381 3.918 5.626 7.256 5.626.621 0 1.252-.078 1.881-.24l10.638-2.747 4.749 6.185c.539.701 13.354 17.36 27.844 34.168 30.084 34.896 45.062 45.535 64.103 45.535 16.404 0 30.426-8.677 51.737-32.015 2.793-3.059 2.578-7.802-.481-10.596-3.059-2.792-7.803-2.578-10.596.481-20.628 22.591-30.852 27.129-40.66 27.129-12.178 0-23.176-6.035-52.742-40.329-15.081-17.551-26.782-32.828-28.172-34.635l15.814-4.084c4.598 5.86 13.818 17.444 23.717 28.926 27.941 32.41 36.012 35.125 41.383 35.125 5.392 0 13.444-2.719 40.9-35.18 9.673-11.437 18.671-22.974 23.194-28.86l15.747 4.067c-1.144 1.532-7.333 9.748-16.807 21.527-2.601 3.224-2.095 7.946 1.128 10.546 1.656 1.552 7.012 2.838 10.546-1.128 13.376-16.724 14.689-18.755 20.845-26.886l53.083 13.711c24.462 7.431 42.364 27.727 46.739 53.003l5.72 32.977c.475 2.841 4.09 6.877 8.671 6.108 4.082-.705 6.817-4.587 6.109-8.668zm-117.738-217.62c-3.166 4.398-6.385 8.594-9.642 12.604-2.98-10.48-5.423-24.571-5.679-46.89 11.061-4.803 20.748-12.528 27.83-22.554 2.988-4.23 5.853-8.862 8.845-13.945-1.131 31.523-5.418 48.649-21.354 70.785zm59.862-67.46c0 16.98-11.994 31.197-27.923 34.575 3.86-16.042 4.638-34.06 4.782-58.126 12.788.174 23.141 10.668 23.141 23.551zm-37.888-113.151v25h-69.165c1.624-6.775 2.248-16.001 0-25zm-120.145-24.994c20.675 0 37.496 16.82 37.496 37.495s-16.82 37.496-37.496 37.496-37.496-16.82-37.496-37.496c.001-20.675 16.821-37.495 37.496-37.495zm-50.98 49.995h-69.769v-25h69.77c-1.624 6.774-2.249 16.001-.001 25zm-108.052 88.15c0-12.882 10.352-23.376 23.142-23.551.143 24.066.921 42.085 4.781 58.126-15.929-3.378-27.923-17.596-27.923-34.575zm38.443-5.147c3.38 5.799 6.57 11.04 9.909 15.767 6.869 9.725 16.189 17.282 26.837 22.111-.227 22.578-2.685 36.782-5.685 47.332-3.257-4.01-6.475-8.206-9.642-12.604-16.242-22.56-20.386-39.907-21.419-72.606zm42.562 98.387c5.055-14.247 8.509-30.039 9.108-55.735 4.271.838 8.652 1.278 13.093 1.278h53.327c4.142 0 7.5-3.358 7.5-7.5s-3.358-7.5-7.5-7.5h-53.328c-17.026 0-32.952-8.156-42.601-21.817-6.923-10.175-15.107-24.679-22.494-37.915 0-3.564.051-24.996.116-37.201h76.113c9.254 14.985 25.824 24.996 44.693 24.996s35.439-10.011 44.693-24.996h75.378c-.098 15.695-.148 33.399-.15 39.212-6.299 10.499-14.434 25.789-21.493 35.904-9.649 13.661-25.575 21.817-42.601 21.817h-23.331c-4.142 0-7.5 3.358-7.5 7.5s3.358 7.5 7.5 7.5h23.331c4.095 0 8.142-.369 12.097-1.083.612 25.582 4.061 41.33 9.104 55.541-25.59 27.153-52.891 42.24-77.528 42.24-24.636-.001-51.938-15.088-77.527-42.241zm108.973 104.021c-20.659 24.617-28.617 30.148-30.921 31.366-2.322-1.209-10.369-6.719-31.443-31.345-10.148-11.857-19.363-23.538-23.076-28.297l2.408-34.887c17.357 10.688 34.884 16.382 51.587 16.382 16.716 0 34.257-5.702 51.628-16.407l2.38 34.95c-3.614 4.732-12.613 16.381-22.563 28.238z"/><path d="m181.412 179.58c-2.929 2.929-2.929 7.678 0 10.606 2.929 2.929 7.678 2.929 10.606 0 8.491-8.49 22.304-8.489 30.793 0 1.464 1.464 3.384 2.197 5.303 2.197s3.839-.732 5.303-2.197c2.929-2.929 2.929-7.678 0-10.606-14.336-14.339-37.667-14.338-52.005 0z"/><path d="m290.182 190.186c8.49-8.49 22.303-8.489 30.794 0 1.464 1.464 3.384 2.197 5.303 2.197s3.839-.732 5.303-2.197c2.929-2.929 2.929-7.678 0-10.606-14.338-14.338-37.668-14.339-52.007 0-2.929 2.929-2.929 7.677 0 10.606s7.678 2.929 10.607 0z"/><path d="m256.497 139.997c12.406 0 22.499-10.093 22.499-22.499s-10.093-22.498-22.499-22.498-22.499 10.093-22.499 22.499 10.094 22.498 22.499 22.498zm0-29.997c4.135 0 7.499 3.364 7.499 7.499s-3.364 7.499-7.499 7.499-7.499-3.364-7.499-7.499 3.365-7.499 7.499-7.499z"/><path d="m174.506 476.962h-62.994c-6.892 0-12.5 5.607-12.5 12.5v14.999c0 4.142 3.358 7.5 7.5 7.5s7.5-3.358 7.5-7.5v-12.498h57.993v12.498c0 4.142 3.358 7.5 7.5 7.5s7.5-3.358 7.5-7.5v-14.999c0-6.893-5.607-12.5-12.499-12.5z"/><path d="m399.483 476.962h-62.994c-6.892 0-12.5 5.607-12.5 12.5v14.999c0 4.142 3.358 7.5 7.5 7.5s7.5-3.358 7.5-7.5v-12.498h57.993v12.498c0 4.142 3.358 7.5 7.5 7.5s7.5-3.358 7.5-7.5v-14.999c0-6.893-5.607-12.5-12.499-12.5z"/></g></g></svg>