<svg height="512pt" viewBox="-63 0 512 512.0004" width="512pt" xmlns="http://www.w3.org/2000/svg"><path d="m346.265625 19.917969c-50.929687-33.5625-100.367187 11.433593-152.78125 11.433593s-101.855469-44.996093-152.78125-11.433593c-46.21875 30.460937-37.292969 98.003906-14.777344 140.386719 2.347657 4.417968 4.617188 8.882812 6.585938 13.484374 39.070312 91.414063-10.820313 148.757813 24.328125 219.058594 17.101562 28.5 36.054687 48.648438 55.507812 57.394532 8.769532 3.945312 18.132813-4.292969 15.464844-13.53125-4.382812-15.199219-9.566406-37.601563-9.566406-58.566407 0-36.324219 16.429687-102.914062 75.238281-102.914062s75.238281 66.589843 75.238281 102.914062c0 20.964844-5.183594 43.367188-9.570312 58.566407-2.664063 9.238281 6.699218 17.476562 15.46875 13.53125 19.449218-8.746094 38.40625-28.894532 55.503906-57.394532 35.152344-70.300781-14.738281-127.644531 24.332031-219.058594 1.964844-4.601562 4.238281-9.066406 6.585938-13.484374 22.511719-42.382813 31.441406-109.925782-14.777344-140.386719zm0 0" fill="#ebeced"/><path d="m253.980469 113.425781c4.375-1.476562 8.925781-2.226562 13.523437-2.226562 18.152344 0 34.25 11.558593 40.058594 28.769531.734375 2.175781 18.054688 54.132812 23.648438 124.40625 3.320312 41.707031 1.871093 81.570312-4.308594 118.488281-1.234375 7.386719-2.6875 14.644531-4.300782 21.796875-15.0625 22.265625-31.339843 38.101563-47.984374 45.582032-8.765626 3.945312-18.132813-4.292969-15.464844-13.53125 4.382812-15.199219 9.570312-37.601563 9.570312-58.566407 0-20.488281-5.230468-50.609375-20.347656-72.972656-.050781-10.871094-.511719-21.964844-1.390625-33.265625-4.585937-58.867188-19.164063-103.746094-19.566406-104.980469-3.582031-10.679687-2.804688-22.113281 2.199219-32.207031 5.015624-10.121094 13.667968-17.683594 24.363281-21.292969zm0 0" fill="#d1d2d3"/><path d="m132.984375 113.425781c-4.375-1.476562-8.921875-2.226562-13.523437-2.226562-18.152344 0-34.25 11.558593-40.054688 28.769531-.738281 2.175781-18.058594 54.132812-23.652344 124.40625-3.316406 41.707031-1.867187 81.570312 4.308594 118.488281 1.238281 7.386719 2.6875 14.644531 4.304688 21.796875 15.0625 22.265625 31.339843 38.101563 47.980468 45.582032 8.769532 3.945312 18.132813-4.292969 15.46875-13.53125-4.386718-15.199219-9.570312-37.601563-9.570312-58.566407 0-20.488281 5.230468-50.609375 20.34375-72.972656.054687-10.871094.511718-21.964844 1.394531-33.265625 4.582031-58.867188 19.160156-103.746094 19.566406-104.980469 3.582031-10.679687 2.800781-22.113281-2.199219-32.207031-5.015624-10.121094-13.667968-17.683594-24.367187-21.292969zm0 0" fill="#d1d2d3"/><path d="m303.902344 338.582031c-2.949219-13.769531-7.867188-29.242187-16.011719-44.300781-20.414063-37.75-53.941406-58.539062-94.40625-58.539062s-73.992187 20.789062-94.410156 58.542968c-8.140625 15.050782-13.058594 30.527344-16.007813 44.296875-.535156-12.175781.679688-25.199219 2.082032-40.269531 3.472656-37.253906 7.792968-83.617188-16.324219-140.042969-2.691407-6.300781-5.703125-12.125-8.023438-16.496093-9.121093-17.164063-14.273437-37.734376-13.789062-55.023438.679687-24.144531 11.777343-31.457031 15.421875-33.859375 6.296875-4.152344 12.136718-5.921875 19.53125-5.921875 11.988281 0 26.84375 4.789062 42.574218 9.859375 20.375 6.566406 43.464844 14.011719 68.945313 14.011719s48.570313-7.445313 68.945313-14.011719c15.726562-5.070313 30.585937-9.859375 42.574218-9.859375 7.394532 0 13.234375 1.769531 19.53125 5.921875 3.644532 2.402344 14.742188 9.714844 15.417969 33.859375.488281 17.289062-4.664063 37.863281-13.785156 55.027344-2.472657 4.652344-5.355469 10.246094-8.023438 16.496094-24.117187 56.421874-19.796875 102.785156-16.324219 140.039062 1.402344 15.070312 2.617188 28.09375 2.082032 40.269531zm0 0" fill="#f08b77"/><path d="m253.980469 113.425781c4.375-1.476562 8.925781-2.226562 13.523437-2.226562 18.152344 0 34.25 11.558593 40.058594 28.769531.304688.898438 3.449219 10.335938 7.429688 26.066406-20.550782 52.925782-16.484376 96.746094-13.175782 132.277344 1.40625 15.070312 2.621094 28.09375 2.085938 40.269531-2.953125-13.769531-7.871094-29.246093-16.011719-44.296875-10.960937-20.269531-25.707031-35.640625-43.269531-45.539062-5.925782-47.101563-16.851563-80.753906-17.203125-81.816406-3.582031-10.679688-2.800781-22.117188 2.199219-32.210938 5.015624-10.121094 13.667968-17.683594 24.363281-21.292969zm0 0" fill="#d77d6a"/><path d="m132.984375 113.425781c-4.375-1.476562-8.921875-2.226562-13.523437-2.226562-18.152344 0-34.25 11.558593-40.054688 28.769531-.304688.898438-3.453125 10.335938-7.433594 26.066406 20.550782 52.925782 16.488282 96.746094 13.175782 132.277344-1.402344 15.070312-2.617188 28.09375-2.082032 40.269531 2.949219-13.769531 7.867188-29.246093 16.007813-44.296875 10.960937-20.269531 25.707031-35.640625 43.273437-45.539062 5.921875-47.101563 16.851563-80.753906 17.199219-81.816406 3.582031-10.679688 2.804687-22.117188-2.199219-32.210938-5.011718-10.121094-13.664062-17.683594-24.363281-21.292969zm0 0" fill="#d77d6a"/><path d="m124.804688 213.378906c-2.949219-21.710937-8.847657-45.3125-19.671876-70.628906-3.269531-7.65625-6.773437-14.441406-9.460937-19.5-5.875-11.058594-9.480469-24.949219-9.1875-35.390625.007813-.304687.019531-.597656.035156-.875 6.816407 1.277344 17.199219 4.625 25.902344 7.425781 22 7.09375 49.375 15.917969 81.0625 15.917969s59.0625-8.824219 81.0625-15.914063c8.699219-2.804687 19.082031-6.152343 25.902344-7.429687.011719.277344.023437.570313.03125.875.296875 10.441406-3.308594 24.332031-9.1875 35.390625-2.855469 5.382812-6.214844 11.90625-9.464844 19.503906-10.820313 25.316406-16.714844 48.914063-19.664063 70.621094-20.546874-11.183594-43.816406-17.125-68.679687-17.125-24.867187 0-48.132813 5.941406-68.679687 17.128906zm0 0" fill="#f4d7b9"/><path d="m132.984375 113.425781c-4.375-1.476562-8.921875-2.226562-13.523437-2.226562-9.449219 0-18.335938 3.140625-25.511719 8.570312.550781 1.183594 1.121093 2.347657 1.722656 3.480469 2.6875 5.054688 6.191406 11.84375 9.460937 19.5 10.824219 25.316406 16.71875 48.917969 19.671876 70.628906 8.082031-4.402344 16.589843-7.976562 25.445312-10.710937 4.695312-21.582031 9.078125-35.070313 9.296875-35.738281 3.582031-10.679688 2.804687-22.117188-2.199219-32.210938-5.011718-10.121094-13.664062-17.683594-24.363281-21.292969zm0 0" fill="#dbc1a6"/><path d="m253.980469 113.425781c4.375-1.476562 8.925781-2.226562 13.523437-2.226562 9.449219 0 18.339844 3.140625 25.511719 8.570312-.550781 1.183594-1.121094 2.347657-1.722656 3.480469-2.683594 5.054688-6.1875 11.84375-9.460938 19.5-10.820312 25.316406-16.71875 48.917969-19.667969 70.628906-8.082031-4.402344-16.589843-7.976562-25.445312-10.710937-4.699219-21.582031-9.082031-35.070313-9.300781-35.738281-3.582031-10.679688-2.800781-22.117188 2.199219-32.210938 5.015624-10.121094 13.667968-17.683594 24.363281-21.292969zm0 0" fill="#dbc1a6"/><path d="m142.792969 504.519531c-5.734375.003907-11.339844-2.851562-14.625-8.054687-21.4375-33.964844-36.054688-73.574219-43.445313-117.730469-5.839844-34.894531-7.203125-72.703125-4.046875-112.371094 5.355469-67.253906 21.722657-116.347656 22.417969-118.402343 3.050781-9.039063 12.855469-13.898438 21.894531-10.84375 9.039063 3.050781 13.894531 12.851562 10.84375 21.894531-.320312.964843-15.882812 48.105469-20.777343 110.953125-2.859376 36.722656-1.574219 71.5625 3.828124 103.554687 6.652344 39.402344 19.605469 74.5625 38.503907 104.5 5.089843 8.070313 2.679687 18.742188-5.390625 23.832031-2.859375 1.808594-6.050782 2.667969-9.203125 2.667969zm0 0" fill="#77b8e9"/><path d="m244.175781 504.519531c5.730469.003907 11.339844-2.851562 14.625-8.054687 21.4375-33.964844 36.054688-73.574219 43.445313-117.730469 5.839844-34.894531 7.199218-72.703125 4.042968-112.371094-5.351562-67.253906-21.722656-116.347656-22.414062-118.402343-3.054688-9.039063-12.855469-13.898438-21.894531-10.84375-9.042969 3.050781-13.898438 12.851562-10.847657 21.894531.324219.964843 15.886719 48.105469 20.78125 110.953125 2.859376 36.722656 1.570313 71.5625-3.832031 103.554687-6.652343 39.402344-19.605469 74.5625-38.5 104.5-5.09375 8.070313-2.679687 18.742188 5.386719 23.832031 2.863281 1.808594 6.054688 2.667969 9.207031 2.667969zm0 0" fill="#77b8e9"/><path d="m44.839844 26.230469c29.199218-19.246094 58.5-9.796875 89.523437.203125 19.015625 6.128906 38.679688 12.46875 59.128907 12.46875 20.449218 0 40.113281-6.335938 59.128906-12.464844 27.632812-8.902344 53.734375-17.316406 79.503906-5.738281 3.777344 1.699219 8.21875.011719 9.914062-3.765625 1.699219-3.777344.011719-8.21875-3.765624-9.914063-31.027344-13.945312-61.136719-4.242187-90.253907 5.140625-17.914062 5.773438-36.433593 11.742188-54.527343 11.742188s-36.613282-5.972656-54.527344-11.746094c-33.023438-10.644531-67.175782-21.652344-102.378906 1.546875-23.007813 15.164063-35.640626 39.984375-36.5351568 71.777344-.7148432 25.429687 6.3046878 54.003906 19.2578128 78.390625 2.007812 3.777344 4.328125 8.269531 6.316406 12.917968 19.433594 45.464844 16.03125 81.941407 12.746094 117.214844-3.179688 34.117188-6.183594 66.34375 11.773437 102.25.082031.171875.175781.339844.277344.503906 14.488281 24.152344 29.921875 41.945313 45.898437 52.96875 7.046876 18.035157 15.550782 35.007813 25.515626 50.792969 7.199218 11.410157 22.769531 14.925781 34.179687 7.726563 11.550781-7.292969 15.015625-22.625 7.726563-34.175782-18.367188-29.097656-30.964844-63.328124-37.453126-101.75-.101562-.601562-.191406-1.207031-.289062-1.8125.785156-12.058593 8.085938-87.722656 67.496094-87.722656s66.710937 75.671875 67.492187 87.726563c-.097656.601562-.1875 1.207031-.289062 1.808593-6.488281 38.421876-19.085938 72.652344-37.449219 101.746094-7.292969 11.554688-3.824219 26.886719 7.726562 34.179688 11.4375 7.21875 26.964844 3.695312 34.179688-7.726563 9.960938-15.785156 18.46875-32.757812 25.511719-50.792969 15.980469-11.027343 31.410156-28.820312 45.902343-52.96875.097657-.164062.1875-.332031.273438-.503906 17.957031-35.910156 14.953125-68.132812 11.773438-102.25-3.285157-35.277344-6.6875-71.75 12.746093-117.214844 1.988281-4.648437 4.308594-9.140624 6.316407-12.917968 21.820312-41.078125 30.324218-101.6875-2.585938-137.675782-2.792969-3.054687-7.539062-3.269531-10.597656-.472656-3.054688 2.792969-3.269532 7.539063-.472656 10.597656 16.015624 17.515626 18.550781 41.023438 17.859374 57.660157-.863281 20.6875-7.222656 43.597656-17.453124 62.855469-2.152344 4.054687-4.652344 8.894531-6.859376 14.054687-20.929687 48.964844-17.1875 89.097656-13.890624 124.503906 3.097656 33.21875 5.769531 61.925781-10.125 93.894531-7.570313 12.589844-15.332032 23.246094-23.210938 31.886719 3.222656-11.144531 5.894531-22.402343 7.996094-33.8125.457031-2.433593.898437-4.875 1.3125-7.339843 3.714844-22.1875 5.648437-45.519532 5.792968-69.730469.089844-14.527344-.46875-29.371094-1.667968-44.476563-.671875-8.4375-1.519532-16.597656-2.484375-24.425781-.007813-.070313-.015625-.144531-.023438-.214844-.839843-6.78125-1.769531-13.3125-2.753906-19.550781 2.636719-20.738281 8.046875-40.492188 16.535156-60.355469 2.5625-5.992187 5.355469-11.414062 7.75-15.921875 9.703125-18.261718 15.183594-40.226562 14.660157-58.757812-.695313-24.691406-15.75-47.070313-42.445313-47.070313-13.167969 0-28.570313 4.964844-44.878906 10.21875-19.847657 6.398438-42.339844 13.652344-66.644531 13.652344-24.296876 0-46.792969-7.25-66.640626-13.652344-16.308593-5.253906-31.710937-10.21875-44.878906-10.21875-27.191406 0-41.746094 22.113281-42.449218 47.070313-.519532 18.53125 4.960937 40.496094 14.660156 58.753906 2.253906 4.246094 5.175781 9.890625 7.753906 15.925781 8.484375 19.859375 13.894531 39.613281 16.535156 60.351563-2.132812 13.503906-4 28.359375-5.261718 44.195312-1.558594 19.601563-2.070313 39.304688-1.359376 58.960938.152344 4.203125 2.300782 8.023437 6.914063 8.347656 4.355469.308594 8.289063-3.332031 8.121094-7.757812-.753907-19.515626-.269531-38.902344 1.277343-58.359376 1.261719-15.835937 3.136719-30.640624 5.273438-44.03125.007812-.027343.015625-.054687.019531-.085937 6.839844-42.820313 16.351563-71.292969 16.753907-72.480469 1.671874-4.964844 7.410156-7.8125 12.386718-6.140625 5.152344 1.734375 7.722656 7.585938 6.058594 12.632813-1.28125 3.886718-15.753906 48.863281-20.828125 109.554687-2.992187 35.734375-2.960937 73 3.667969 108.359375 6.820312 40.386719 20.128906 76.476563 39.558594 107.257813 2.875 4.558593 1.507812 10.605469-3.046876 13.484375-4.523437 2.855468-10.636718 1.46875-13.488281-3.046875-9.832031-15.582031-18.175781-32.40625-25.03125-50.339844-4.816406-12.601563-8.898437-25.796875-12.210937-39.445313-.007813-.039062-.019532-.082031-.027344-.121093-3.871094-16.0625-5.515625-32.214844-8.3125-48.4375-.632812-3.660157-4.21875-6.503907-8.007812-6.1875-.058594.003906-.117188.003906-.175782.011719-4.808594.511718-7.019531 4.921874-6.53125 9.347656 2.375 21.558594 6.398438 42.992187 12.421875 63.835937-7.878906-8.644531-15.640625-19.296875-23.210937-31.886719-15.894532-31.972656-13.21875-60.675781-10.125-93.894531 3.300781-35.40625 7.039062-75.539062-13.890625-124.503906-2.203125-5.160156-4.707031-10.003906-6.859375-14.058594-11.601563-21.835937-18.144532-48.355469-17.511719-70.933593.523437-18.605469 6.117187-44.066407 29.792969-59.667969zm220.800781 295.964843c-2.261719-5.703124-5.007813-11.433593-8.34375-16.960937-14.792969-24.5-36.859375-37.453125-63.804687-37.453125-26.945313 0-49.007813 12.953125-63.804688 37.453125-3.335938 5.527344-6.082031 11.257813-8.34375 16.960937-.074219-2.082031-.25-10.816406-.25-13.089843-.050781-11.589844.367188-23.179688 1.179688-34.742188 18.613281-20.335937 43.183593-31.070312 71.21875-31.070312 28.035156 0 52.605468 10.734375 71.21875 31.070312.304687 4.347657.558593 8.691407.742187 13.046875.519531 11.585938.589844 23.195313.1875 34.785156zm-138.253906-192.136718c-6.167969-2.082032-13.082031-1.625-18.914063 1.273437-.082031.042969-.164062.078125-.242187.117188-2.136719-4.457031-4.195313-8.414063-5.925781-11.667969-3.710938-6.988281-6.472657-15.433594-7.671876-23 5.050782 1.453125 10.621094 3.25 15.496094 4.820312 22.496094 7.253907 50.496094 16.28125 83.363282 16.28125 32.871093 0 60.867187-9.027343 83.363281-16.28125 4.871093-1.566406 10.441406-3.363281 15.496093-4.820312-1.195312 7.566406-3.957031 16.011719-7.671874 23-1.824219 3.433594-3.847657 7.328125-5.925782 11.667969-.085937-.042969-.179687-.082031-.265625-.125-5.835937-2.886719-12.730469-3.347657-18.898437-1.261719-11.8125 3.992188-19.046875 16.851562-16.230469 29.007812 3.277344 14.160157 7.902344 27.933594 10.945313 42.164063-18.875-8.253906-39.273438-12.429687-60.8125-12.429687-21.539063 0-41.9375 4.175781-60.816407 12.429687.570313-2.664063 1.15625-5.328125 1.765625-7.988281 2.453125-10.621094 5.015625-21.300782 8.464844-31.652344 4.160156-12.746094-2.636719-27.191406-15.519531-31.535156zm.988281 93.648437c.207031-1.21875.679688-3.902343.703125-4.042969 19.582031-10.519531 41.246094-15.859374 64.414063-15.859374 23.167968 0 44.832031 5.339843 64.410156 15.855468.027344.148438.5 2.851563.707031 4.066406 1.347656 7.886719 4.011719 28.070313 4.023437 28.1875-19.429687-15.519531-42.984374-23.621093-69.140624-23.621093-26.152344 0-49.707032 8.101562-69.140626 23.621093.011719-.109374 2.453126-18.949218 4.023438-28.207031zm124.09375 268.804688c-2.84375 4.503906-8.992188 5.886719-13.484375 3.046875-4.558594-2.875-5.929687-8.925782-3.050781-13.484375 19.429687-30.78125 32.738281-66.867188 39.558594-107.257813 12.003906-71.113281 5.300781-149.457031-17.210938-218.070312-.011719-.03125-.023438-.0625-.027344-.085938-1.730468-5 1.121094-10.695312 6.152344-12.390625 4.921875-1.664062 10.707031 1.210938 12.371094 6.136719 12.625 37.351562 18.925781 77.378906 22.046875 116.601562 2.925781 36.792969 2.132812 74.09375-3.964844 110.539063-6.78125 40.5-20.410156 80.140625-42.390625 114.964844zm-176.738281-337.140625c-2.800781-6.546875-5.90625-12.558594-8.300781-17.066406-8.535157-16.066407-13.363282-35.242188-12.910157-51.292969.460938-16.441407 8.824219-32.492188 27.453125-32.492188 10.808594 0 25.121094 4.613281 40.273438 9.5 20.898437 6.738281 44.585937 14.371094 71.246094 14.371094 26.660156 0 50.347656-7.632813 71.246093-14.371094 15.152344-4.886719 29.464844-9.5 40.273438-9.5 18.96875 0 26.984375 15.699219 27.453125 32.492188.453125 16.050781-4.375 35.226562-12.914063 51.296875-2.539062 4.789062-5.515625 10.558594-8.296875 17.066406-3.984375 9.324219-7.335937 18.636719-10.078125 28.027344-.003906-.019532-.007812-.039063-.011719-.058594-5.15625-22.6875-9.808593-36.648438-10.175781-37.734375-.238281-.710937-.976562-2.425781-1.054687-2.59375 2.757812-6.195313 5.5625-11.617187 7.992187-16.195313 6.539063-12.308593 10.394531-27.296874 10.0625-39.128906-.136719-4.808594-3.792969-8.980468-8.910156-8.027344-7.292969 1.363282-17.667969 4.707032-26.824219 7.660157-21.496094 6.929687-48.25 15.554687-78.761718 15.554687-30.507813 0-57.261719-8.625-78.78125-15.5625-9.148438-2.949218-19.519532-6.292968-26.804688-7.652344-5.121094-.960937-8.777344 3.222657-8.910156 8.035157-.332032 11.820312 3.523437 26.808593 10.0625 39.117187 2.289062 4.308594 5.1875 9.90625 7.996094 16.195313-.082032.171875-.863282 2.015625-1.121094 2.785156-.65625 1.976563-5.160156 15.742187-10.125 37.605469-2.742188-9.390625-6.09375-18.703125-10.078125-28.03125zm0 0"/></svg>