<?xml version="1.0" encoding="iso-8859-1"?>
<!-- Generator: Adobe Illustrator 19.0.0, SVG Export Plug-In . SVG Version: 6.00 Build 0)  -->
<svg version="1.1" id="Capa_1" xmlns="http://www.w3.org/2000/svg" xmlns:xlink="http://www.w3.org/1999/xlink" x="0px" y="0px"
	 viewBox="0 0 512 512" style="enable-background:new 0 0 512 512;" xml:space="preserve">
<path style="fill:#F7A6A6;" d="M426.355,293.354c-22.005-6.293-45.369,3.99-55.608,24.459H308.96
	c-21.934-29.252-63.428-35.174-92.68-13.24c-5.022,3.76-9.48,8.218-13.24,13.24h-61.787c-10.239-20.469-33.603-30.752-55.608-24.459
	L0.026,317.813V512h511.947V317.813L426.355,293.354z"/>
<path style="fill:#F59A9A;" d="M0.026,512h511.947V317.813l-11.969-3.416C351.575,443.672,107.138,460.311,0.026,464.653V512z"/>
<path style="fill:#E6E6E6;" d="M158.906,256.026h-37.072c3.257,15.358,7.653,30.461,13.152,45.166l6.267,16.621l7.203,129.752
	c0.53,14.714,11.536,26.939,26.118,28.996c15.65,1.73,29.869-9.215,32.209-24.785l18.633-124.253
	c1.712-13.055,11.342-23.691,24.167-26.683c16.638-3.522,32.976,7.105,36.498,23.735c0.124,0.591,0.238,1.192,0.327,1.801
	l18.624,124.165c1.686,12.931,11.475,23.32,24.273,25.783c15.967,2.692,31.096-8.068,33.789-24.044
	c0.177-1.077,0.3-2.154,0.362-3.239l7.291-131.226l6.232-16.621c5.508-14.705,9.912-29.808,13.187-45.166L158.906,256.026
	L158.906,256.026z"/>
<path style="fill:#DEDEDE;" d="M338.785,198.785c-1.968-7.865-9.03-13.372-17.133-13.372H190.347
	c-8.103,0-15.164,5.508-17.133,13.372l-14.308,57.241h194.187L338.785,198.785z"/>
<path style="fill:#E6E6E6;" d="M390.165,132.453c4.678-21.855,7.052-44.142,7.061-66.491c0.018-36.401-29.472-65.926-65.873-65.944
	c-8.941-0.009-17.786,1.809-26.003,5.331c-31.511,13.505-67.189,13.505-98.7,0c-33.453-14.343-72.202,1.156-86.546,34.609
	c-3.522,8.218-5.34,17.062-5.331,26.003c0.009,22.349,2.383,44.636,7.061,66.491H390.165z"/>
<path style="fill:#F2F2F2;" d="M158.906,88.319h-17.653V77.727c0.468-21.06,12.287-40.214,30.893-50.074l8.827,15.367
	c-13.099,6.744-21.537,20.028-22.067,34.751V88.319z"/>
<g>
</g>
<g>
</g>
<g>
</g>
<g>
</g>
<g>
</g>
<g>
</g>
<g>
</g>
<g>
</g>
<g>
</g>
<g>
</g>
<g>
</g>
<g>
</g>
<g>
</g>
<g>
</g>
<g>
</g>
</svg>
