<?xml version="1.0"?>
<svg xmlns="http://www.w3.org/2000/svg" xmlns:xlink="http://www.w3.org/1999/xlink" xmlns:svgjs="http://svgjs.com/svgjs" version="1.1" width="512" height="512" x="0" y="0" viewBox="0 0 512 512" style="enable-background:new 0 0 512 512" xml:space="preserve" class=""><g><g xmlns="http://www.w3.org/2000/svg"><g><path d="m512 268.068v-125.339l-9.449-3.764c-78.79-31.384-161.741-47.298-246.551-47.298l-10.667 82.568 10.667 125.284z" fill="#f27281" data-original="#f27281" style=""/><path d="m0 142.729v125.888l256 30.902v-207.852c-84.811 0-167.762 15.914-246.551 47.299z" fill="#f68b98" data-original="#f68b98" style=""/></g><path d="m155.485 271.366v-.785c0-23.419-18.985-42.405-42.405-42.405-22.816 0-41.416 18.022-42.359 40.606l-.045-.164c0-19.516-15.821-35.337-35.337-35.337-19.518-.001-35.339 15.82-35.339 35.336v43.006c0 5.523 4.477 10 10 10h60.675v2.565c0 5.523 4.477 10 10 10h74.81l13.083-24.855s-13.083-26.625-13.083-37.967z" fill="#efe2dd" data-original="#efe2dd" style="" class=""/><path d="m476.663 233.28c-19.517 0-35.338 15.821-35.338 35.337l-.037.493c-.776-22.738-19.441-40.935-42.368-40.935-23.42 0-42.405 18.985-42.405 42.405v.785c0-27.756-22.501-50.258-50.257-50.258-27.756 0-50.258 22.501-50.258 50.258l-10.667 27.301 10.667 48.086h90.515c5.523 0 10-4.477 10-10v-2.564h74.81c5.523 0 10-4.477 10-10v-2.565h60.675c5.523 0 10-4.477 10-10v-43.006c0-19.516-15.821-35.337-35.337-35.337z" fill="#efe2dd" data-original="#efe2dd" style="" class=""/><path d="m205.743 221.108c-27.757 0-50.258 22.501-50.258 50.258v-.785 63.608 2.564c0 5.523 4.477 10 10 10h90.515v-75.386c0-27.758-22.501-50.259-50.257-50.259z" fill="#ffd6b3" data-original="#cdbfba" style="" class=""/><path d="m166.021 272.051c-34.359 0-62.313 27.954-62.313 62.313v60.969c0 13.785 11.215 25 25 25h74.625c13.785 0 25-11.215 25-25v-60.969c0-34.359-27.953-62.313-62.312-62.313z" fill="#f7f0eb" data-original="#f7f0eb" style="" class=""/></g></g></svg>
