<svg id="_x33_0" enable-background="new 0 0 62 62" height="512" viewBox="0 0 62 62" width="512" xmlns="http://www.w3.org/2000/svg"><g><g><g><path d="m44.38 13.38c.4.4.62.94.62 1.5 0 .58-.24 1.12-.62 1.5s-.92.62-1.5.62c-.56 0-1.1-.22-1.5-.62l-11.76-11.76c-.4-.4-.62-.94-.62-1.5 0-.58.24-1.12.62-1.5s.92-.62 1.5-.62c.56 0 1.1.22 1.5.62l4.47 4.47 2.82 2.82z" fill="#aab2bd"/></g><g><path d="m59 12.9v36.9l-4-2.4v-20.4-14.1c0-4.36-3.54-7.9-7.9-7.9-2.11 0-4.09.82-5.59 2.31l-1.6 1.6-2.82-2.82 1.6-1.6c2.24-2.25 5.23-3.49 8.41-3.49 6.56 0 11.9 5.34 11.9 11.9z" fill="#ccd1d9"/></g><g><path d="m51 27v2c0 1.1-.9 2-2 2s-2-.9-2-2v-2-2c0-1.1.9-2 2-2 .55 0 1.05.22 1.41.59.37.36.59.86.59 1.41z" fill="#fcd770"/></g><g><path d="m43 27v2c0 1.1-.9 2-2 2s-2-.9-2-2v-2-2c0-1.1.9-2 2-2 .55 0 1.05.22 1.41.59.37.36.59.86.59 1.41z" fill="#fcd770"/></g><g><path d="m29 25v1c0 2.76-2.24 5-5 5s-5-2.24-5-5v-1z" fill="#ccd1d9"/></g><g><path d="m31 32v3c-1.66 0-3.16.67-4.24 1.76-.63.62-1.12 1.39-1.41 2.24-.23.63-.35 1.3-.35 2s.12 1.37.34 2h-4.34l-8-8.47v-2.53c0-.55.45-1 1-1h1 9 6c.55 0 1 .45 1 1z" fill="#dfb28b"/></g><g><path d="m60.38 50.63c.38.23.62.64.62 1.09 0 .71-.57 1.28-1.28 1.28h-1.37c-.23 0-.45-.06-.65-.18l-9.7-5.82h2c.55 0 1-.45 1-1v-1l4 2.4 4 2.4z" fill="#aab2bd"/></g><g><path d="m51 60v1h-10v-1c0-1.13.37-2.17 1-3 .91-1.21 2.37-2 4-2 1.38 0 2.63.56 3.54 1.46.9.91 1.46 2.16 1.46 3.54z" fill="#969faa"/></g><g><path d="m51 45v1c0 .55-.45 1-1 1h-2-9c0-2.21-1.79-4-4-4h6 8 1c.55 0 1 .45 1 1z" fill="#ccd1d9"/></g><g><path d="m42 57h-5.5l-12.5-10h7c0 2.02 1.5 3.69 3.45 3.96z" fill="#aab2bd"/></g><g><path d="m36.5 57h5.5c-.63.83-1 1.87-1 3v1h-27c-.55 0-1-.45-1-1v-2c0-.55.45-1 1-1z" fill="#aab2bd"/></g><g><path d="m39 35c1.1 0 2 .9 2 2 0 .55-.22 1.05-.59 1.41-.36.37-.86.59-1.41.59h-13.64-.01c.29-.85.78-1.62 1.41-2.24 1.08-1.09 2.58-1.76 4.24-1.76z" fill="#969faa"/></g><g><path d="m35 43c2.21 0 4 1.79 4 4s-1.79 4-4 4c-.19 0-.37-.01-.55-.04-1.95-.27-3.45-1.94-3.45-3.96 0-2.21 1.79-4 4-4z" fill="#aab2bd"/></g><g><path d="m25.34 43h9.66c-2.21 0-4 1.79-4 4h-7-5l-13.14-13.86.01-.01 2.99-2.99 4.14 4.39 8 8.47z" fill="#ccd1d9"/></g><g><path d="m8.86 30.14-2.99 2.99-.01.01-4.59-4.85c-.17-.19-.27-.43-.27-.69v-.03c0-.71.29-1.35.75-1.82.47-.46 1.11-.75 1.82-.75.27 0 .54.11.73.31z" fill="#aab2bd"/></g></g><path d="m60.895 49.771-.895-.537v-36.335c0-7.112-5.787-12.899-12.899-12.899-3.446 0-6.686 1.342-9.121 3.778l-.894.894-3.758-3.758c-.581-.581-1.385-.914-2.207-.914-1.721 0-3.121 1.4-3.121 3.121 0 .822.333 1.626.914 2.207l11.758 11.758c.581.581 1.385.914 2.207.914 1.721 0 3.121-1.4 3.121-3.121 0-.822-.333-1.626-.914-2.207l-3.758-3.758.894-.894c1.302-1.302 3.036-2.02 4.879-2.02 3.804 0 6.899 3.095 6.899 6.899v13.101h-2v-1c0-1.654-1.346-3-3-3s-3 1.346-3 3v1h-2v-1c0-1.654-1.346-3-3-3s-3 1.346-3 3v1h-2v2h2v1c0 1.302.839 2.402 2 2.816v2.369c-.314-.113-.648-.185-1-.185h-7v-2c0-1.103-.897-2-2-2h-1.54c.954-1.063 1.54-2.462 1.54-4v-2h-12v2c0 1.538.586 2.937 1.54 4h-3.54v-11c0-1.654 1.346-3 3-3s3 1.346 3 3v1h-2v2h6v-2h-2v-1c0-2.757-2.243-5-5-5s-5 2.243-5 5v11c-1.103 0-2 .897-2 2v.014l-6.976-7.386c-.376-.399-.906-.628-1.455-.628-1.967 0-3.569 1.602-3.569 3.602 0 .516.195 1.005.549 1.375l18.021 19.023h5.078l10 8h-19.648c-1.103 0-2 .897-2 2v2c0 1.103.897 2 2 2h38v-2c0-3.309-2.691-6-6-6-1.588 0-3.031.624-4.106 1.634l-5.011-4.009c1.526-.624 2.68-1.976 3.016-3.625h7.824l9.46 5.677c.354.211.758.323 1.171.323h1.369c1.256 0 2.277-1.021 2.277-2.277 0-.796-.424-1.544-1.105-1.952zm-16.895-34.892c0 .618-.503 1.121-1.121 1.121-.295 0-.584-.119-.793-.328l-11.758-11.758c-.209-.209-.328-.498-.328-.793 0-.618.503-1.121 1.121-1.121.295 0 .584.119.793.328l11.758 11.758c.209.209.328.498.328.793zm3.101-10.879c-2.377 0-4.612.926-6.293 2.606l-.894.894-1.414-1.414.894-.894c2.057-2.058 4.794-3.192 7.707-3.192 6.009 0 10.899 4.89 10.899 10.899v35.134l-2-1.2v-33.934c0-4.907-3.992-8.899-8.899-8.899zm6.899 24v17.634l-2-1.2v-.434c0-1.103-.897-2-2-2v-10.184c1.161-.414 2-1.514 2-2.816v-1zm-20 21.816c-.847-.302-1.514-.969-1.816-1.816h1.816zm-15.255-4.541-11.474-12.132 1.566-1.566 10.956 11.601zm2.873-1.275h3.067c.357.749.839 1.426 1.426 2h-5.493zm4.382-3c0-.343.034-.677.101-1h12.899c.352 0 .686-.072 1-.184v2.184h-13.899c-.066-.323-.101-.658-.101-1zm5.026 3c-.424.56-.74 1.203-.898 1.912-1.265-.224-2.356-.927-3.102-1.912zm1.158 2c.302-.847.969-1.514 1.816-1.816v1.816zm3.816-1.816c.847.302 1.514.969 1.816 1.816h-1.816zm2.974-.184h11.026v2h-10.101c-.152-.743-.482-1.416-.925-2zm9.026-19c0-.552.448-1 1-1s1 .448 1 1v4c0 .552-.448 1-1 1s-1-.448-1-1zm-2 3v1c0 1.302.839 2.402 2 2.816v10.184h-6v-10.184c1.161-.414 2-1.514 2-2.816v-1zm-6-3c0-.552.448-1 1-1s1 .448 1 1v4c0 .552-.448 1-1 1s-1-.448-1-1zm0 12c0 .552-.448 1-1 1h-11.998c.913-1.214 2.365-2 3.998-2h8c.552 0 1 .448 1 1zm-20-11h8c0 2.206-1.794 4-4 4s-4-1.794-4-4zm-6 6h16v2.08c-3.386.488-6 3.401-6 6.92 0 .34.033.672.08 1h-2.649l-7.431-7.868zm-10.432-6 3.895 4.123-1.567 1.567-3.896-4.121c0-.865.704-1.569 1.568-1.569zm23.284 22h3.25c.4 1.964 1.956 3.51 3.924 3.901l5.122 4.099h-2.297zm13.148 12h-26v-2h26.343c-.222.626-.343 1.299-.343 2zm6-4c2.206 0 4 1.794 4 4h-8c0-2.206 1.794-4 4-4zm-10-6.184v-1.816h1.816c-.302.847-.969 1.514-1.816 1.816zm23.723 2.184h-1.369c-.051 0-.101-.014-.143-.039l-7.134-4.281c.363-.234.642-.581.794-.992l7.996 4.797c.081.05.133.141.133.238 0 .153-.124.277-.277.277z"/></g></svg>