<?xml version="1.0" encoding="iso-8859-1"?>
<!-- Generator: Adobe Illustrator 19.0.0, SVG Export Plug-In . SVG Version: 6.00 Build 0)  -->
<svg version="1.1" id="Capa_1" xmlns="http://www.w3.org/2000/svg" xmlns:xlink="http://www.w3.org/1999/xlink" x="0px" y="0px"
	 viewBox="0 0 512 512" style="enable-background:new 0 0 512 512;" xml:space="preserve">
<path style="fill:#FFEFCF;" d="M408.342,111.718c0-57.55-48.455-104.204-120.235-104.204c-32.232,0-60.792,17.092-79.906,40.078
	c-19.114-22.986-48.175-40.078-80.407-40.078c-71.78,0-120.235,46.653-120.235,104.204c0,128.25,84.449,113.998,56.11,176.344
	c-40.078,88.172,0.462,216.423,32.063,216.423c32.063,0,24.047-176.344,112.219-176.344s80.157,176.344,112.219,176.344
	c31.601,0,72.141-128.25,32.063-216.423C323.892,225.716,408.342,239.969,408.342,111.718z"/>
<g>
	<path style="fill:#FFE5AB;" d="M95.732,288.063c28.339-62.347-56.11-48.094-56.11-176.344c0-52.519,40.357-95.954,101.964-103.149
		c-4.519-0.684-9.121-1.054-13.792-1.054c-71.78,0-120.235,46.653-120.235,104.204c0,128.25,84.449,113.998,56.11,176.344
		c-40.078,88.172,0.462,216.423,32.063,216.423c5.369,0,9.615-4.952,13.376-13.187C83.53,456.366,63.404,359.185,95.732,288.063z"/>
	<path style="fill:#FFE5AB;" d="M143.826,87.671c8.016,0,62.233,19.816,80.157-16.031c24.047-48.094,59.468-59.578,82.412-63.07
		c-5.908-0.69-12.005-1.055-18.287-1.055c-24.185,0-48.104,7.68-63.914,24.139C196.392,60.596,183.904,87.671,143.826,87.671z"/>
	<path style="fill:#FFE5AB;" d="M240.013,328.141c-5.74,0-11.069,0.753-16.031,2.151c71.263,20.068,66.212,174.193,96.188,174.193
		c6.111,0,12.555-4.812,18.686-13.187C320.157,450.36,313.419,328.141,240.013,328.141z"/>
</g>
<path style="fill:#C3C2B6;" d="M499.834,404.978l-80.157-80.157c-6.26-6.261-16.411-6.261-22.671,0
	c-6.261,6.26-6.261,16.411,0,22.671l80.157,80.157c3.13,3.131,7.233,4.696,11.335,4.696c4.102,0,8.205-1.565,11.335-4.696
	C506.095,421.388,506.095,411.238,499.834,404.978z"/>
<circle style="fill:#FFD782;" cx="288.112" cy="215.922" r="96.188"/>
<circle style="fill:#BAF0F8;" cx="288.112" cy="215.922" r="64.125"/>
<path style="fill:#98E8F4;" d="M312.154,264.016c-35.415,0-64.125-28.71-64.125-64.125c0-17.035,6.656-32.507,17.492-43.991
	c-24.269,9.137-41.539,32.559-41.539,60.022c0,35.415,28.71,64.125,64.125,64.125c18.38,0,34.941-7.745,46.633-20.134
	C327.714,262.558,320.105,264.016,312.154,264.016z"/>
<path d="M361.348,312.854c-4.038,0.957-6.537,5.006-5.581,9.045c15.958,67.386-4.204,141.308-24.24,166.645
	c-4.174,5.277-8.419,8.427-11.357,8.427c-0.03,0-3.107-0.133-7.78-11.675c-3.912-9.663-7.532-23.798-11.363-38.764
	c-13.607-53.135-32.24-125.906-93.076-125.906s-79.47,72.771-93.076,125.906c-3.831,14.965-7.452,29.101-11.364,38.764
	c-4.673,11.542-7.749,11.675-7.779,11.675c-2.185,0-5.093-1.714-8.189-4.828c-16.505-16.6-33.39-66.227-33.077-120.54
	c0.024-4.15-3.321-7.535-7.472-7.558c-0.015,0-0.029,0-0.044,0c-4.13,0-7.49,3.336-7.514,7.472
	C39.131,424.546,55.231,480.96,76.885,502.74c6.109,6.144,12.45,9.26,18.847,9.26c17.894,0,24.526-25.897,33.703-61.74
	c6.597-25.763,14.074-54.963,26.542-77.746c13.572-24.802,30.574-36.859,51.974-36.859s38.401,12.057,51.975,36.859
	c12.467,22.781,19.945,51.983,26.542,77.746c9.178,35.843,15.809,61.74,33.703,61.74c7.94,0,15.728-4.755,23.145-14.135
	c12.372-15.644,23.118-43.815,28.748-75.356c6.367-35.677,5.774-72.639-1.67-104.075
	C369.436,314.396,365.385,311.899,361.348,312.854z"/>
<path d="M56.828,284.953c-6.91,15.203-11.836,32.242-14.642,50.645c-0.625,4.103,2.193,7.936,6.297,8.561
	c0.384,0.058,0.764,0.086,1.141,0.086c3.65,0,6.852-2.664,7.419-6.383c2.596-17.036,7.127-32.746,13.465-46.69
	c15.103-33.227,1.298-48.896-14.688-67.037c-18.154-20.602-40.748-46.244-40.748-112.416c0-56.025,47.406-96.689,112.72-96.689
	c25.496,0,51.536,12.21,70.718,32.917c-0.373,0.535-0.75,1.075-1.118,1.604c-12.815,18.43-21.28,30.606-53.569,30.606
	c-4.15,0-7.515,3.365-7.515,7.515c0,4.15,3.365,7.515,7.515,7.515c40.144,0,52.084-17.173,65.909-37.056
	c1.12-1.611,2.273-3.261,3.455-4.93c0.28-0.248,0.548-0.511,0.791-0.803c19.748-23.747,46.765-37.368,74.128-37.368
	c65.315,0,112.72,40.663,112.72,96.689c0,22.864-2.68,42.259-8.193,59.294c-1.277,3.949,0.888,8.185,4.836,9.464
	c3.952,1.281,8.185-0.888,9.464-4.836c6.004-18.553,8.922-39.461,8.922-63.921c0-30.537-12.68-58.694-35.705-79.284
	C356.763,11.518,324.075,0,288.107,0c-29.216,0-57.916,13.129-79.917,36.299C186.317,13.434,156.831,0,127.794,0
	C91.826,0,59.137,11.518,35.75,32.434C12.725,53.025,0.045,81.182,0.045,111.718c0,71.848,25.72,101.038,44.501,122.353
	C60.099,251.722,67.905,260.582,56.828,284.953z"/>
<path d="M505.147,399.664l-80.157-80.157c-7.066-7.067-18.156-8.906-27.119-4.448l-31.349-31.349
	c15.747-18.192,25.286-41.897,25.286-67.789c0-57.182-46.521-103.703-103.703-103.703s-103.703,46.521-103.703,103.703
	s46.521,103.703,103.703,103.703c25.893,0,49.598-9.539,67.789-25.286l31.349,31.349c-4.458,8.962-2.619,20.053,4.447,27.118
	l80.157,80.157c9.076,9.077,24.222,9.078,33.299,0.001C514.224,423.887,514.225,408.74,505.147,399.664z M199.434,215.922
	c0-48.895,39.779-88.673,88.673-88.673s88.673,39.779,88.673,88.673s-39.779,88.673-88.673,88.673S199.434,264.816,199.434,215.922z
	 M494.52,422.336c-3.282,3.282-8.761,3.281-12.044,0l-80.157-80.157c-3.286-3.285-3.276-8.757,0-12.044
	c3.277-3.287,8.765-3.278,12.044,0l80.157,80.157C497.783,413.595,497.818,419.037,494.52,422.336z"/>
<path d="M288.107,144.282c-39.502,0-71.64,32.138-71.64,71.64s32.138,71.64,71.64,71.64s71.64-32.138,71.64-71.64
	S327.61,144.282,288.107,144.282z M288.107,272.532c-31.215,0-56.611-25.396-56.611-56.611s25.396-56.611,56.611-56.611
	s56.611,25.396,56.611,56.611S319.322,272.532,288.107,272.532z"/>
<g>
</g>
<g>
</g>
<g>
</g>
<g>
</g>
<g>
</g>
<g>
</g>
<g>
</g>
<g>
</g>
<g>
</g>
<g>
</g>
<g>
</g>
<g>
</g>
<g>
</g>
<g>
</g>
<g>
</g>
</svg>
