<?xml version="1.0"?>
<svg xmlns="http://www.w3.org/2000/svg" xmlns:xlink="http://www.w3.org/1999/xlink" xmlns:svgjs="http://svgjs.com/svgjs" version="1.1" width="512" height="512" x="0" y="0" viewBox="0 0 503.83763 503" style="enable-background:new 0 0 512 512" xml:space="preserve" class=""><g><path xmlns="http://www.w3.org/2000/svg" d="m426.484375 197.679688-120.363281 65.972656-89.136719 48.847656h-.082031l-.421875.253906c-12.839844 1.425782-27.195313 8.894532-32.148438 43.898438-8.476562 60.851562-25.515625 139.160156-50.945312 139.160156-3.472657.011719-6.914063-.613281-10.15625-1.84375-18.464844-7.050781-25.683594-33.15625-30.46875-50.78125-7.042969-28.003906-11.871094-56.515625-14.4375-85.277344-3.589844-26.691406-12.191407-52.464844-25.347657-75.960937-12.171874-22.832031-27.445312-43.226563-37.015624-67.566407-21.488282-54.808593-26.523438-128.253906 19.222656-172.066406 22.023437-20.273437 50.574218-32.003906 80.492187-33.070312 10.460938-.589844 20.953125-.082032 31.308594 1.511718.082031-.085937.25 0 .417969 0 22.640625 3.382813 44.109375 12.257813 62.53125 25.851563 2.9375 2.183594 5.707031 4.53125 8.394531 6.964844 1.425781-1.34375 2.9375-2.601563 4.449219-3.859375 23.261718-18.457032 51.75-29.117188 81.414062-30.46875 35.601563-2.871094 70.808594 9.09375 97.28125 33.070312 41.210938 39.53125 41.210938 103.070313 25.011719 155.363282zm0 0" fill="#ebebeb" data-original="#cfd8dc" style="" class=""/><path xmlns="http://www.w3.org/2000/svg" d="m409.699219 197.679688-103.578125 65.972656-76.210938 48.511718s-6.042968.085938-12.925781.335938h-.082031c-5.375.167969-11.25.421875-15.445313.671875-13.261719 1.007813-28.957031 8.476563-33.910156 43.480469-7.722656 55.394531-22.578125 125.3125-44.316406 137.316406-18.464844-7.050781-25.683594-33.15625-30.46875-50.78125-7.042969-28.003906-11.871094-56.515625-14.4375-85.277344-3.589844-26.691406-12.191407-52.464844-25.347657-75.960937-12.171874-22.832031-27.445312-43.226563-37.015624-67.566407-21.488282-54.808593-26.523438-128.253906 19.222656-172.066406 22.023437-20.273437 50.574218-32.003906 80.492187-33.070312 20.816407 1.175781 41.378907-1.847656 59.507813 7.636718 9.570312 4.953126 18.46875 2.6875 26.355468 9.90625 2.6875-2.433593 5.457032 12.003907 8.394532 9.820313 1.511718-1.175781 3.105468-2.265625 4.699218-3.359375 1.765626 1.261719 3.441407 2.6875 5.707032 4.535156.839844.671875 1.597656 1.339844 2.4375 1.929688 23.261718-18.457032 51.75-29.117188 81.414062-30.46875 29.917969 1.066406 58.46875 12.796875 80.492188 33.070312 41.214844 39.53125 41.214844 103.070313 25.015625 155.363282zm0 0" fill="#ffffff" data-original="#f5f5f5" style="" class=""/><path xmlns="http://www.w3.org/2000/svg" d="m485.574219 322.574219c-6.765625 14.304687-14.363281 28.207031-22.746094 41.628906-8.128906 14.453125-13.425781 30.320313-15.613281 46.753906-1.570313 17.695313-4.546875 35.234375-8.894532 52.457031-3.441406 12.675782-8.980468 32.398438-25.011718 32.398438-3.777344 0-7.304688-2.851562-10.492188-7.71875-9.90625-15.027344-16.871094-49.523438-20.816406-77.894531-2.769531-19.304688-10.996094-24.84375-18.382812-26.355469-.839844-.167969-1.679688-.332031-2.515626-.417969h-.085937c-4.792969.351563-9.28125 2.476563-12.589844 5.960938-4.855469 5.914062-7.757812 13.183593-8.308593 20.8125-5.203126 37.4375-15.695313 85.613281-31.390626 85.613281-5.855468-.058594-11.320312-2.933594-14.691406-7.71875-4.980468-7.484375-8.460937-15.867188-10.238281-24.679688-4.785156-17.121093 9.902344-34.832031 7.890625-52.457031-2.226562-16.425781-7.523438-32.285156-15.613281-46.753906-8.378907-13.4375-16-27.339844-22.832031-41.628906-13.175782-33.660157-16.28125-78.898438 11.835937-105.84375 11.5-10.992188 9.652344-17.457031 25.433594-19.640625 4.144531-.574219 8.320312-.855469 12.503906-.835938 15.957031-.082031 31.652344 4.0625 45.492187 12 4.464844 2.660156 8.652344 5.75 12.507813 9.234375 12.65625-11.128906 28.355469-18.203125 45.074219-20.3125 9.5625-1.34375 19.277344-1.175781 28.789062.503907 14.570313 2.316406 28.109375 8.953124 38.859375 19.050781 28.203125 26.945312 25.097657 72.183593 11.835938 105.84375zm0 0" fill="#ebebeb" data-original="#dfc49c" style="" class=""/><path xmlns="http://www.w3.org/2000/svg" d="m460.394531 322.574219c-6.769531 14.304687-14.363281 28.207031-22.746093 41.628906-8.128907 14.453125-13.425782 30.320313-15.613282 46.753906-1.570312 17.695313-4.546875 35.234375-8.894531 52.457031-1.847656 8.808594-5.351563 17.179688-10.324219 24.679688-9.90625-15.027344-16.871094-49.523438-20.816406-77.894531-2.769531-19.304688-10.996094-24.84375-18.382812-26.355469-.859376-.183594-1.726563-.324219-2.601563-.417969-1.445313 0-2.863281-.277343-4.289063-.386719-4.023437-.3125-8.0625-.390624-12.09375-.234374-3.945312.007812-7.882812.398437-11.75 1.167968-1.753906.390625-3.449218 1.011719-5.039062 1.855469-3.371094 1.953125-6.132812 4.8125-7.972656 8.25-1.199219 2.175781-2.164063 4.476563-2.878906 6.855469-.445313 1.417968-.839844 2.863281-1.132813 4.316406-.445313 1.617188-.726563 3.277344-.839844 4.949219-3.945312 28.371093-10.910156 62.867187-20.898437 77.894531-4.984375-7.484375-8.460938-15.867188-10.242188-24.679688-4.347656-17.222656-7.324218-34.761718-8.894531-52.457031-2.226563-16.425781-7.523437-32.285156-15.613281-46.753906-8.378906-13.4375-16-27.339844-22.828125-41.628906-13.179688-33.660157-16.285157-78.898438 11.832031-105.84375 11.65625-10.824219 26.429688-17.695313 42.21875-19.640625 16.957031 2.351562 38.265625-3.84375 50.519531 7.320312 3.863281-3.523437 2.863281 6.445313 7.480469 3.84375 4.433594 2.664063 8.59375 5.757813 12.421875 9.234375 12.65625-11.128906 28.355469-18.203125 45.074219-20.3125 1.210937.078125 2.417968.246094 3.609375.503907 14.570312 2.316406 28.105469 8.953124 38.859375 19.050781 28.203125 26.945312 25.097656 72.183593 11.835937 105.84375zm0 0" fill="#ffffff" data-original="#ffe0b2" style="" class=""/><path xmlns="http://www.w3.org/2000/svg" d="m141.777344 504.207031c-32.875 0-43.191406-38.273437-48.679688-58.835937-7.207031-28.398438-12.132812-57.328125-14.722656-86.511719-3.414062-25.652344-11.703125-50.417969-24.417969-72.957031-4.289062-8.058594-9.105469-16.015625-13.765625-23.710938-9.148437-14.207031-17.0625-29.175781-23.652344-44.738281-22.164062-56.539063-28.191406-133.832031 21.230469-181.195313 50.214844-48.214843 141.152344-47.691406 194.609375 1.125 3.242188 3.160157 3.390625 8.324219.335938 11.667969-3.054688 3.34375-8.210938 3.660157-11.652344.71875-46.441406-42.386719-128.257812-43.066406-171.671875-1.402343-43.410156 41.664062-37.398437 111.484374-17.222656 162.949218 6.238281 14.675782 13.726562 28.785156 22.378906 42.179688 4.785156 7.890625 9.726563 16.046875 14.269531 24.507812 13.722656 24.402344 22.640625 51.207032 26.277344 78.964844 2.539062 28.304688 7.28125 56.367188 14.1875 83.933594 6.035156 22.5625 14.03125 46.519531 32.496094 46.519531 8.394531 0 28.09375-27.574219 42.640625-131.929687 4.390625-31.054688 18.289062-48.101563 41.296875-50.652344 3.023437-.421875 6.039062.832031 7.871094 3.277344 1.828124 2.441406 2.191406 5.6875.941406 8.472656s-3.914063 4.671875-6.957032 4.925781c-6.507812.722656-21.730468 2.410156-26.535156 36.308594-13.527344 97.128906-33.472656 146.382812-59.257812 146.382812zm0 0" fill="#000000" data-original="#000000" style="" class=""/><path xmlns="http://www.w3.org/2000/svg" d="m434.878906 206.074219c-.855468.003906-1.703125-.125-2.519531-.378907-4.425781-1.375-6.902344-6.074218-5.53125-10.5 18.71875-60.300781 10.191406-115.199218-22.777344-146.820312-43.394531-41.671875-125.222656-41-171.671875 1.394531-2.195312 2.140625-5.378906 2.914063-8.3125 2.019531-2.929687-.894531-5.140625-3.316406-5.765625-6.316406s.433594-6.101562 2.761719-8.089844c53.5-48.816406 144.402344-49.371093 194.613281-1.117187 37.652344 36.089844 47.839844 97.363281 27.21875 163.898437-1.089843 3.511719-4.339843 5.90625-8.015625 5.910157zm0 0" fill="#000000" data-original="#000000" style="" class=""/><path xmlns="http://www.w3.org/2000/svg" d="m233.601562 322.910156c-.804687 0-1.609374-.117187-2.382812-.355468-1.757812-.496094-3.554688-.84375-5.371094-1.039063-2.980468-.339844-5.550781-2.246094-6.742187-4.996094-1.195313-2.753906-.828125-5.929687.957031-8.339843 1.785156-2.410157 4.71875-3.683594 7.699219-3.339844 2.785156.304687 5.535156.847656 8.226562 1.625 4 1.183594 6.523438 5.125 5.925781 9.253906-.597656 4.128906-4.136718 7.191406-8.3125 7.191406zm0 0" fill="#000000" data-original="#000000" style="" class=""/><path xmlns="http://www.w3.org/2000/svg" d="m281.621094 463.078125c-3.152344.003906-6.039063-1.757813-7.476563-4.566406-.304687-.621094-.546875-1.273438-.722656-1.945313-1.308594-4.195312.839844-8.691406 4.925781-10.308594 4.089844-1.613281 8.730469.199219 10.644532 4.15625.261718.566407.472656 1.152344.628906 1.753907.800781 2.546875.34375 5.324219-1.238282 7.480469-1.578124 2.15625-4.089843 3.429687-6.761718 3.429687zm0 0" fill="#000000" data-original="#000000" style="" class=""/><path xmlns="http://www.w3.org/2000/svg" d="m319.046875 101.320312c-44.878906 0-96.042969-49.636718-98.203125-51.753906-3.230469-3.257812-3.242188-8.507812-.03125-11.78125 3.210938-3.277344 8.460938-3.367187 11.785156-.203125.476563.460938 48.4375 46.953125 86.449219 46.953125 4.636719 0 8.394531 3.757813 8.394531 8.394532 0 4.632812-3.757812 8.390624-8.394531 8.390624zm0 0" fill="#000000" data-original="#000000" style="" class=""/><path xmlns="http://www.w3.org/2000/svg" d="m48.359375 176.167969c-3.785156 0-7.101563-2.535157-8.097656-6.1875-22.539063-82.734375 35.378906-111.617188 35.941406-111.894531 4.144531-1.859376 9.019531-.085938 10.996094 4.003906 1.976562 4.09375.339843 9.015625-3.695313 11.105468-2.007812 1-45.785156 23.652344-27.042968 92.328126.691406 2.527343.164062 5.226562-1.425782 7.308593s-4.058594 3.300781-6.675781 3.300781zm0 0" fill="#000000" data-original="#000000" style="" class=""/><path xmlns="http://www.w3.org/2000/svg" d="m117.605469 50.960938c0 4.636718-3.757813 8.394531-8.394531 8.394531-4.632813 0-8.390626-3.757813-8.390626-8.394531 0-4.636719 3.757813-8.394532 8.390626-8.394532 4.636718 0 8.394531 3.757813 8.394531 8.394532zm0 0" fill="#000000" data-original="#000000" style="" class=""/><path xmlns="http://www.w3.org/2000/svg" d="m308.765625 504.207031c-22.710937 0-29.738281-26.070312-33.101563-38.609375-4.449218-17.636718-7.5-35.601562-9.125-53.71875-2.050781-15.375-7.019531-30.21875-14.636718-43.730468-2.636719-4.941407-5.515625-9.683594-8.394532-14.417969-5.734374-8.90625-10.691406-18.292969-14.816406-28.050781-14.023437-35.765626-17.75-84.773438 13.835938-114.992188 32.0625-30.785156 90.09375-30.484375 124.179687.648438 3.242188 3.160156 3.390625 8.324218.335938 11.667968-3.054688 3.34375-8.207031 3.660156-11.652344.71875-27.410156-25.019531-75.671875-25.457031-101.238281-.914062-25.566406 24.542968-21.875 66.039062-9.804688 96.742187 3.78125 8.863281 8.308594 17.390625 13.539063 25.484375 3.027343 4.992188 6.058593 10.003906 8.828125 15.207032 8.644531 15.378906 14.257812 32.273437 16.535156 49.765624 1.542969 17.265626 4.425781 34.382813 8.628906 51.199219 3.398438 12.699219 7.796875 26.214844 16.886719 26.214844 3.15625-1 14.570313-17.628906 23.042969-78.414063 2.9375-20.765624 12.445312-32.179687 28.25-33.941406 4.609375-.511718 8.757812 2.808594 9.269531 7.414063.515625 4.609375-2.804687 8.757812-7.414063 9.273437-3.535156.394532-10.910156 1.207032-13.488281 19.597656-12.933593 92.855469-32.347656 92.855469-39.660156 92.855469zm0 0" fill="#000000" data-original="#000000" style="" class=""/><path xmlns="http://www.w3.org/2000/svg" d="m413.308594 504.207031c-7.304688 0-26.710938 0-39.617188-92.847656-2.519531-17.398437-9.234375-18.769531-11.753906-19.304687-.542969-.109376-1.113281-.234376-1.675781-.300782-3.054688-.214844-5.75-2.070312-7.039063-4.847656-1.285156-2.777344-.957031-6.035156.855469-8.5s4.828125-3.75 7.859375-3.347656c1.113281.125 2.214844.304687 3.308594.542968 13.859375 2.832032 22.269531 14.0625 25.046875 33.390626 8.492187 60.800781 19.859375 77.414062 23.191406 78.429687 8.863281 0 13.285156-13.539063 16.734375-26.222656 4.21875-16.8125 7.113281-33.933594 8.65625-51.199219 2.304688-17.492188 7.925781-34.378906 16.558594-49.765625 2.769531-5.238281 5.824218-10.289063 8.878906-15.335937 5.199219-8.050782 9.695312-16.53125 13.449219-25.347657 11.53125-29.285156 15.878906-72.183593-9.820313-96.714843-9.554687-8.941407-21.566406-14.8125-34.488281-16.855469-23.796875-4.394531-48.304687 2.117187-66.78125 17.742187-3.4375 3.125-8.753906 2.871094-11.878906-.566406s-2.871094-8.753906.566406-11.878906c22.277344-19.21875 52.09375-27.25 81.011719-21.824219 16.199218 2.601563 31.242187 10.011719 43.183594 21.261719 31.671874 30.214844 27.910156 79.226562 13.824218 114.988281-4.082031 9.71875-9.003906 19.0625-14.703125 27.925781-2.886719 4.777344-5.785156 9.558594-8.394531 14.554688-7.636719 13.5-12.632812 28.328125-14.722656 43.695312-1.625 18.140625-4.6875 36.121094-9.15625 53.777344-3.652344 13.445312-10.464844 38.550781-33.09375 38.550781zm0 0" fill="#000000" data-original="#000000" style="" class=""/><path xmlns="http://www.w3.org/2000/svg" d="m417.855469 256.257812c-28.914063 0-61.320313-31.433593-62.691407-32.734374-3.308593-3.246094-3.363281-8.5625-.121093-11.875 3.246093-3.3125 8.5625-3.363282 11.875-.121094 7.964843 7.78125 32.640625 27.976562 50.945312 27.976562 4.636719 0 8.394531 3.757813 8.394531 8.394532 0 4.632812-3.757812 8.390624-8.394531 8.390624zm0 0" fill="#000000" data-original="#000000" style="" class=""/><path xmlns="http://www.w3.org/2000/svg" d="m265.507812 311.644531c-3.578124 0-6.761718-2.261719-7.933593-5.640625-14.5625-41.898437 5.953125-66.777344 18.828125-74.078125 4.023437-2.304687 9.152344-.910156 11.457031 3.113281 2.304687 4.023438.910156 9.152344-3.113281 11.457032-1.160156.6875-24.746094 15.351562-11.316406 53.992187.894531 2.566407.492187 5.410157-1.082032 7.625-1.574218 2.214844-4.125 3.53125-6.839844 3.53125zm0 0" fill="#000000" data-original="#000000" style="" class=""/><path xmlns="http://www.w3.org/2000/svg" d="m310.65625 227.222656c0 4.636719-3.757812 8.394532-8.394531 8.394532s-8.394531-3.757813-8.394531-8.394532c0-4.632812 3.757812-8.390625 8.394531-8.390625s8.394531 3.757813 8.394531 8.390625zm0 0" fill="#000000" data-original="#000000" style="" class=""/></g></svg>
