<svg id="Capa_1" enable-background="new 0 0 512 512" height="512" viewBox="0 0 512 512" width="512" xmlns="http://www.w3.org/2000/svg"><g><g><path d="m407.306 298.01c-.536-6.188 1.282-12.366 5.141-17.232.022-.028.045-.057.067-.085 39.563-49.833 66.11-105.053 51.334-169.124-2.368-10.266-5.458-20.376-9.377-30.159-17.04-42.539-53.357-73.92-100.762-73.92-22.928 0-44.126 7.405-61.333 19.954-21.664 15.799-51.086 15.799-72.751 0-17.208-12.549-38.405-19.954-61.334-19.954-47.405 0-83.722 31.381-100.762 73.919-3.919 9.783-7.009 19.893-9.377 30.159-14.776 64.071 11.771 119.292 51.333 169.125.022.028.045.057.067.085 3.859 4.866 5.677 11.044 5.141 17.232-2.069 23.889-3.671 47.908-6.962 71.549-3.73 26.79-5.217 55.45 4.1 81.323 8.936 24.813 41.342 67.641 72.287 49.135 24.637-14.733 17.548-55.575 17.42-79.323-.083-15.309 1.916-29.82 6.289-42.906 18.787-56.226 97.552-56.233 116.344-.008 4.374 13.088 6.374 27.602 6.291 42.914-.128 23.748-7.217 64.589 17.42 79.323 30.945 18.506 63.351-24.322 72.287-49.135 9.317-25.873 7.83-54.533 4.1-81.323-3.292-23.642-4.894-47.66-6.963-71.549z" fill="#fec165"/></g><g><path d="m414.271 369.561c3.725 26.793 5.213 55.443-4.104 81.317-8.658 24.047-39.355 65.01-69.404 50.69 21.071-7.39 39.236-34.083 45.577-51.688 9.317-25.874 7.829-54.525 4.094-81.317-3.285-23.647-4.893-47.664-6.961-71.551-.539-6.191 1.278-12.363 5.143-17.236.02-.03.04-.05.07-.08 39.555-49.831 66.108-105.055 51.329-169.126-2.367-10.266-5.452-20.372-9.377-30.158-15.029-37.538-45.087-66.388-84.513-72.649 2.497-.18 5.033-.27 7.58-.27 47.404 0 83.724 31.377 100.77 73.918 3.914 9.786 7.01 19.892 9.377 30.158 14.769 64.071-11.774 119.295-51.339 169.126-.02.03-.04.05-.07.08-3.855 4.873-5.672 11.045-5.133 17.236 2.068 23.886 3.665 47.903 6.961 71.55z" fill="#fdb441"/></g><g><path d="m467.967 145.022c-7.4-.28-14.82-.589-22.06.689-15.519 2.726-29.479 13.132-36.539 27.212-9.587 19.124-9.627 42.99-23.358 60.157-17.246 21.54-39.535 10.695-53.725-8.748-7.47-10.236-14.3-23.887-27.961-26.603-17.935-3.565-33.793 8.648-40.105 24.846-6.092 15.628-3.974 50.53-28.76 48.972-7.669-.479-14.35-5.862-18.314-12.433-3.964-6.561-5.662-14.22-7.1-21.75-2.946-15.379-2.736-52.357-20.052-59.308-12.253-4.893-22.499 9.667-33.394 17.056-11.444 7.759-27.772 7.41-38.876-.819-14.42-10.695-17.895-30.508-19.803-48.363-2.457-22.888-4.214-46.026-10.505-68.176-2.796-9.856-6.591-19.573-11.554-28.57 19.591-25.234 48.102-41.691 82.434-41.691 22.928 0 44.119 7.4 61.325 19.952 21.67 15.798 51.089 15.798 72.759 0 17.206-12.553 38.397-19.952 61.325-19.952 47.404 0 83.724 31.377 100.77 73.918 3.914 9.786 7.01 19.892 9.377 30.158 2.638 11.424 3.956 22.568 4.116 33.453z" fill="#eef5f6"/></g><g><path d="m467.967 145.022c-7.4-.28-14.82-.589-22.06.689-.589.1-1.168.22-1.748.35-.03-11.524-1.348-23.348-4.144-35.491-2.367-10.266-5.452-20.372-9.377-30.158-15.029-37.528-45.077-66.378-84.493-72.649.479-.03.959-.07 1.438-.09.609-.04 1.228-.07 1.848-.09 1.439-.046 2.834-.09 4.274-.09 47.404 0 83.724 31.377 100.77 73.918 3.914 9.786 7.01 19.892 9.377 30.158.349 1.528.679 3.056.988 4.584 1.523 7.522 2.477 14.808 2.896 22.459.08 1.458.147 2.903.19 4.364.021.688.031 1.367.041 2.046z" fill="#deecf1"/></g><path d="m415.935 382.335c-4.125.314-7.215 3.911-6.901 8.036 1.756 23.088-.177 42.051-5.913 57.973-5.418 15.046-22.145 40.419-40.841 47.097-7.357 2.627-14.079 2.021-20.554-1.852-16.655-9.96-15.323-37.351-14.252-59.36.234-4.81.455-9.354.478-13.494.089-16.556-2.158-31.807-6.678-45.328-9.6-28.723-35.223-47.281-65.276-47.28-30.054.001-55.677 18.563-65.275 47.29-4.518 13.523-6.764 28.771-6.675 45.319.022 4.141.244 8.686.478 13.497 1.07 22.008 2.402 49.397-14.253 59.357-6.477 3.875-13.201 4.48-20.554 1.852-18.696-6.678-35.424-32.052-40.842-47.097-9.303-25.83-6.879-55.121-3.728-77.753 2.606-18.719 4.182-37.874 5.705-56.399.426-5.182.853-10.362 1.3-15.536.708-8.162-1.683-16.164-6.734-22.533l-.07-.087c-46.227-58.23-62.083-109.956-49.9-162.785 2.348-10.183 5.387-19.96 9.03-29.057 2.87-7.164 6.299-13.919 10.207-20.207 2.1 4.995 3.95 10.278 5.521 15.815 5.263 18.526 7.31 38.391 9.29 57.602.32 3.111.641 6.221.973 9.323 2.211 20.691 6.502 41.503 22.792 53.584 13.57 10.056 33.563 10.476 47.539 1 3.281-2.226 6.369-4.906 9.355-7.497 7.664-6.653 12.639-10.57 17.045-8.807 9.508 3.816 12.169 27.115 13.759 41.035.563 4.937 1.05 9.2 1.726 12.727 1.54 8.064 3.429 16.578 8.043 24.215 5.703 9.449 14.771 15.445 24.256 16.038 10.845.678 20.104-4.784 25.293-14.318 4.141-7.609 5.974-17.169 7.592-25.604.56-2.915 1.087-5.668 1.671-8.162.944-4.027-1.555-8.057-5.582-9.001-4.027-.942-8.058 1.555-9.001 5.583-.654 2.79-1.21 5.689-1.799 8.758-3.859 20.121-7.11 28.432-17.235 27.793-5.396-.337-9.927-4.781-12.372-8.832-5.549-9.184-6.526-20.524-7.71-30.898-2.222-19.452-5.265-46.093-23.074-53.242-13.218-5.278-23.871 3.97-32.432 11.401-7.059 6.128-12.443 10.55-22.172 10.677-5.648.074-11.416-1.517-15.983-4.901-15.436-11.436-16.007-35.123-17.785-52.41-2.046-19.85-4.161-40.376-9.78-60.156-2.604-9.178-5.905-17.781-9.837-25.643.303-.358.612-.706.918-1.059 1.465-1.689 2.981-3.334 4.546-4.931 1.084-1.106 2.193-2.187 3.326-3.243 9.52-8.875 20.75-15.942 32.977-20.344.867-.313 1.739-.613 2.616-.901 19.535-6.396 41.051-6.08 60.52.583 9.107 3.117 17.741 7.65 25.523 13.323 7.79 5.679 16.437 9.536 25.392 11.589 11.064 2.537 22.596 2.307 33.573-.695 7.964-2.177 15.636-5.804 22.619-10.895 16.602-12.112 36.282-18.513 56.911-18.513 20.854 0 40.636 6.728 57.208 19.456 8.771 6.736 16.578 15.058 23.193 24.635 5.268 7.629 9.782 16.054 13.414 25.12 3.644 9.098 6.683 18.874 9.031 29.058 1.538 6.675 2.658 13.511 3.297 20.358.115 1.229.213 2.457.297 3.686-5.108-.071-10.301.115-15.533 1.039-17.774 3.122-33.844 15.089-41.939 31.233-4.282 8.544-6.75 17.732-9.137 26.618-3.223 12-6.268 23.333-13.371 32.214-4.897 6.117-10.306 9.144-16.094 9.023-8.249-.184-17.87-6.728-25.735-17.505-4.713-6.458-9.185-13.981-14.864-19.613-4.905-4.863-10.851-8.562-17.687-9.921-9.467-1.883-19-.289-27.565 4.608-3.591 2.053-4.837 6.629-2.784 10.22 2.053 3.59 6.629 4.837 10.219 2.785 5.384-3.078 11.338-4.088 17.21-2.921 8.304 1.651 13.691 9.573 19.395 17.959 1.287 1.894 2.619 3.853 3.977 5.713 10.757 14.738 24.425 23.358 37.501 23.65 7.338.17 18.197-2.241 28.123-14.639 9.063-11.329 12.662-24.729 16.143-37.688 2.294-8.539 4.46-16.605 8.061-23.79 6.011-11.987 17.943-20.874 31.146-23.194 4.233-.748 8.631-.876 13.195-.802-1.356 39.728-18.938 79.896-53.757 123.754l-.068.085c-5.049 6.367-7.441 14.369-6.734 22.532.448 5.175.874 10.355 1.3 15.537 1.141 13.874 2.321 28.22 3.928 42.296.468 4.111 4.182 7.058 8.29 6.593 4.11-.469 7.061-4.181 6.592-8.29-2.182-19.147-3.538-38.335-5.188-57.427-.375-4.337.885-8.575 3.548-11.932l.065-.082c49.288-62.084 66.055-117.839 52.766-175.464-2.521-10.932-5.792-21.45-9.723-31.262-9.189-22.94-23.5-42.328-41.384-56.066-19.209-14.758-42.145-22.558-66.328-22.558-23.822 0-46.557 7.397-65.747 21.392-19.117 13.942-44.806 13.942-63.925 0-19.189-13.995-41.924-21.392-65.746-21.392-24.183 0-47.119 7.8-66.33 22.558-17.884 13.738-32.195 33.126-41.385 56.067-3.93 9.811-7.201 20.329-9.723 31.261-13.288 57.626 3.478 113.381 52.764 175.462l.067.084c2.663 3.358 3.923 7.596 3.548 11.932-.451 5.196-.878 10.398-1.306 15.601-1.507 18.318-3.065 37.26-5.613 55.562-3.387 24.337-5.941 55.98 4.471 84.893 6.121 16.997 25.081 47.264 49.897 56.129 4.583 1.637 9.165 2.452 13.669 2.452 6.805 0 13.434-1.86 19.612-5.554 24.365-14.57 22.723-48.307 21.525-72.941-.225-4.645-.439-9.033-.459-12.85-.081-14.904 1.905-28.528 5.902-40.491 9.129-27.321 32.366-37.057 51.069-37.057 18.701-.001 41.937 9.731 51.068 37.049 3.998 11.962 5.986 25.589 5.906 40.5-.021 3.817-.234 8.203-.46 12.847-1.198 24.635-2.84 58.373 21.525 72.944 10.267 6.14 21.776 7.212 33.282 3.103 24.816-8.865 43.774-39.132 49.896-56.128 6.465-17.952 8.675-38.947 6.755-64.185-.315-4.127-3.903-7.216-8.036-6.903z"/><g><circle cx="129.429" cy="241.029" r="7.49"/></g><g><circle cx="173.337" cy="248.519" r="7.49"/></g><g><circle cx="151.898" cy="317.035" r="7.49"/></g><g><circle cx="136.919" cy="377.452" r="7.49"/></g><g><circle cx="201.948" cy="300.59" r="7.49"/></g><g><circle cx="299.234" cy="256.009" r="7.49"/></g><g><circle cx="366.561" cy="293.1" r="7.49"/></g><g><circle cx="359.072" cy="352.027" r="7.49"/></g><g><circle cx="381.54" cy="415.431" r="7.49"/></g><g><circle cx="299.234" cy="300.59" r="7.49"/></g><g><circle cx="159.388" cy="430.41" r="7.49"/></g></g></svg>