<svg id="_x31__x2C_5" height="512" viewBox="0 0 24 24" width="512" xmlns="http://www.w3.org/2000/svg"><path d="m13.5 20.25c-.965 0-1.75-.941-1.75-2.098l.37-13.902h2.76l.37 13.839c0 1.202-.769 2.161-1.75 2.161z" fill="#607d8b"/><path d="m13 4.25c-1.24 0-2.25-.785-2.25-1.75s1.01-1.75 2.25-1.75h3c.138 0 .25.087.25.194v3.111c0 .107-.112.194-.25.194h-3z" fill="#cfd8dc"/><path d="m16.25 5h-3.75c-1.379 0-2.5-1.122-2.5-2.5s1.121-2.5 2.5-2.5h3.75c.414 0 .75.336.75.75v3.5c0 .414-.336.75-.75.75zm-3.75-3.5c-.552 0-1 .449-1 1s.448 1 1 1h3v-2z"/><path d="m19.25 3.25h-2.75c-.414 0-.75-.336-.75-.75s.336-.75.75-.75h2.75c.414 0 .75.336.75.75s-.336.75-.75.75z"/><path d="m13.5 21c-1.379 0-2.5-1.234-2.5-2.75h.002c-.002-.027-.002-.054-.002-.081l.385-14.02 1.5.041-.384 13.98c0 .017 0 .034-.001.051 0 .718.448 1.279 1 1.279s1-.561 1-1.25c0-.013 0-.026.001-.04h-.001l-.385-13.94 1.5-.041.385 13.94c.001.031-.001.062-.004.093-.048 1.56-1.149 2.738-2.496 2.738z"/><path d="m10.875 24c-1.861 0-3.375-1.514-3.375-3.375v-7.125c0-.551-.448-1-1-1s-1 .449-1 1v6.75c0 .414-.336.75-.75.75s-.75-.336-.75-.75v-6.75c0-1.378 1.121-2.5 2.5-2.5s2.5 1.122 2.5 2.5v7.125c0 1.034.841 1.875 1.875 1.875s1.875-.841 1.875-1.875v-.125c0-.414.336-.75.75-.75s.75.336.75.75v.125c0 1.861-1.514 3.375-3.375 3.375z"/></svg>