<?xml version="1.0" encoding="iso-8859-1"?>
<!-- Generator: Adobe Illustrator 19.0.0, SVG Export Plug-In . SVG Version: 6.00 Build 0)  -->
<svg version="1.1" id="Capa_1" xmlns="http://www.w3.org/2000/svg" xmlns:xlink="http://www.w3.org/1999/xlink" x="0px" y="0px"
	 viewBox="0 0 512.004 512.004" style="enable-background:new 0 0 512.004 512.004;" xml:space="preserve">
<path style="fill:#F7A6A6;" d="M469.311,341.328L469.311,341.328c6.254-9.429,18.96-11.997,28.388-5.742
	c2.278,1.51,4.232,3.464,5.742,5.742l0,0V477.85H8.55V341.328l0,0c6.254-9.429,18.959-11.997,28.388-5.742
	c2.278,1.51,4.232,3.464,5.742,5.742l0,0l33.601,2.398l0,0c9.522-13.328,28.047-16.417,41.375-6.903
	c3.268,2.338,6.033,5.307,8.115,8.746l1.067,1.766l35.299,2.526l0,0c9.42-9.429,24.702-9.429,34.122-0.009c0,0,0,0,0.009,0.009l0,0
	l31.272-0.384l0,0c9.625-17.176,31.349-23.303,48.525-13.678c4.915,2.756,9.113,6.638,12.236,11.323l1.826,2.739l25.598-1.468l0,0
	c9.429-9.42,24.702-9.42,34.13,0l0,0l25.598,1.468l6.826-8.533c12.918-16.144,36.477-18.763,52.629-5.845
	c1.51,1.212,2.927,2.534,4.232,3.968l3.149,3.413L469.311,341.328z"/>
<path style="fill:#F59A9A;" d="M8.55,477.85h494.892v-97.673C361.92,449.419,108.927,449.616,8.55,450.392
	C8.55,450.392,8.55,477.85,8.55,477.85z"/>
<path style="fill:#F7F7F7;" d="M503.442,157.877c0.034-16.459-13.277-29.822-29.736-29.856c-9.557-0.017-18.533,4.548-24.156,12.27
	c-7.347-17.355-27.373-25.478-44.737-18.132c-6.843,2.893-12.551,7.944-16.263,14.386c0,0-21.63-42.663-55.761-17.065H196.267
	l-8.533,17.065c0,0-8.533-25.598-34.13-25.598c-14.787,0.162-27.287,10.99-29.557,25.598c-16.553-16.639-43.457-16.707-60.095-0.154
	c-2.483,2.474-4.659,5.248-6.459,8.251c-4.608-2.287-9.667-3.498-14.813-3.533c-18.857,0-34.139,15.273-34.148,34.122
	c-0.009,12.202,6.51,23.482,17.082,29.583c-4.898,13.763,2.287,28.891,16.05,33.789c0.341,0.119,0.674,0.23,1.015,0.341h17.065
	v25.598h383.968v-26.024c1.408,0.282,2.833,0.427,4.266,0.427c11.724,0.06,21.272-9.386,21.332-21.11
	c0.026-4.915-1.655-9.685-4.753-13.499l30.351-25.555C500.387,173.201,503.45,165.692,503.442,157.877z"/>
<g>
	<path style="fill:#E6E6E6;" d="M241.004,232.477L241.004,232.477c-6.792-6.792-15.999-10.606-25.598-10.606l0,0
		c-19.992-0.009-36.195,16.195-36.204,36.187c0,0.009,0,0.009,0,0.017l0,0c0,21.238,3.422,42.33,10.137,62.476l6.928,20.777
		l7.261,72.63c0.725,7.219,6.809,12.714,14.07,12.697l0,0c7.278,0,13.362-5.546,14.036-12.799l6.024-64.063
		c0.742-9.582,8.729-16.98,18.337-16.997l0,0c9.633,0,17.637,7.415,18.371,17.014l6.024,64.063
		c0.683,7.227,6.741,12.765,14.002,12.782l0,0c7.244,0,13.311-5.486,14.036-12.697l7.295-72.63l6.928-20.777
		c6.715-20.146,10.137-41.238,10.137-62.476l0,0c0.009-19.992-16.195-36.195-36.187-36.204c-0.009,0-0.009,0-0.017,0l0,0
		c-9.599,0-18.806,3.814-25.598,10.606l0,0C262.702,240.762,249.281,240.762,241.004,232.477z"/>
	<path style="fill:#E6E6E6;" d="M87.417,232.477L87.417,232.477c-6.792-6.792-15.999-10.606-25.598-10.606l0,0
		c-19.992-0.009-36.195,16.195-36.204,36.187c0,0.009,0,0.009,0,0.017l0,0c0,21.238,3.422,42.33,10.137,62.476l6.928,20.777
		l7.261,72.63c0.725,7.219,6.809,12.714,14.07,12.697l0,0c7.278,0,13.362-5.546,14.036-12.799l6.024-64.063
		c0.742-9.582,8.729-16.98,18.337-16.997l0,0c9.633,0,17.637,7.415,18.371,17.014l6.024,64.063
		c0.683,7.227,6.741,12.765,14.002,12.782l0,0c7.244,0,13.311-5.486,14.036-12.697l7.295-72.63l6.928-20.777
		c6.715-20.146,10.137-41.238,10.137-62.476l0,0c0.009-19.992-16.195-36.195-36.187-36.204c-0.009,0-0.009,0-0.017,0l0,0
		c-9.599,0-18.806,3.814-25.598,10.606l0,0C109.115,240.762,95.693,240.762,87.417,232.477z"/>
	<path style="fill:#E6E6E6;" d="M394.591,232.477L394.591,232.477c-6.792-6.792-15.999-10.606-25.598-10.606l0,0
		c-19.992-0.009-36.195,16.195-36.204,36.187c0,0.009,0,0.009,0,0.017l0,0c0,21.238,3.422,42.33,10.137,62.476l6.928,20.777
		l7.261,72.63c0.725,7.219,6.809,12.714,14.07,12.697l0,0c7.278,0,13.362-5.546,14.036-12.799l6.024-64.063
		c0.742-9.582,8.729-16.98,18.337-16.997l0,0c9.633,0,17.637,7.415,18.371,17.014l6.024,64.063
		c0.683,7.227,6.741,12.765,14.002,12.782l0,0c7.244,0,13.311-5.486,14.036-12.697l7.295-72.63l6.928-20.777
		c6.715-20.146,10.137-41.238,10.137-62.476l0,0c0.009-19.992-16.195-36.195-36.187-36.204c-0.009,0-0.009,0-0.017,0l0,0
		c-9.599,0-18.806,3.814-25.598,10.606l0,0C416.29,240.762,402.868,240.762,394.591,232.477z"/>
</g>
<g>
	<polygon style="fill:#A2DAEB;" points="153.604,68.284 153.604,153.61 187.735,170.676 187.735,68.284 	"/>
	<polygon style="fill:#A2DAEB;" points="221.865,68.284 221.865,153.61 255.996,170.676 255.996,68.284 	"/>
</g>
<g>
	<polygon style="fill:#86C8DC;" points="187.735,68.284 187.735,170.676 221.865,153.61 221.865,68.284 	"/>
	<polygon style="fill:#86C8DC;" points="324.257,68.284 324.257,170.676 358.387,153.61 358.387,68.284 	"/>
	<polygon style="fill:#86C8DC;" points="255.996,68.284 255.996,170.676 290.126,153.61 290.126,68.284 	"/>
</g>
<polygon style="fill:#A2DAEB;" points="290.126,68.284 290.126,153.61 324.257,170.676 324.257,68.284 "/>
<rect x="153.587" y="34.137" style="fill:#4398D1;" width="349.838" height="34.13"/>
<circle style="fill:#F7F7F7;" cx="51.196" cy="59.734" r="25.598"/>
<g>
	<circle style="fill:#FFFFFF;" cx="102.391" cy="179.191" r="17.065"/>
	<circle style="fill:#FFFFFF;" cx="477.827" cy="196.256" r="25.598"/>
</g>
<g>
	<rect x="179.185" y="68.267" style="fill:#7BBDD1;" width="17.065" height="102.391"/>
	<rect x="247.446" y="68.267" style="fill:#7BBDD1;" width="17.065" height="102.391"/>
	<rect x="315.707" y="68.267" style="fill:#7BBDD1;" width="17.065" height="102.391"/>
</g>
<g>
	<path style="fill:#F7F7F7;" d="M51.648,292.829l-2.5-7.492c-4.719-14.429,1.809-30.137,15.359-36.972l7.628,15.273
		c-5.973,3.012-8.84,9.941-6.749,16.297l2.5,7.5L51.648,292.829z"/>
	<path style="fill:#F7F7F7;" d="M205.235,292.829l-2.5-7.492c-4.719-14.429,1.809-30.137,15.359-36.972l7.628,15.273
		c-5.973,3.012-8.84,9.941-6.749,16.297l2.5,7.5L205.235,292.829z"/>
	<path style="fill:#F7F7F7;" d="M358.822,292.829l-2.5-7.492c-4.744-14.429,1.758-30.163,15.316-37.015l7.628,15.273
		c-5.973,3.012-8.84,9.94-6.749,16.297l2.5,7.5L358.822,292.829z"/>
</g>
<g>
	<path style="fill:#DEDEDE;" d="M166.727,230.933c-19.744,68.048-86.572,99.371-123.902,111.837l7.116,71.188
		c0.785,7.748,7.713,13.396,15.461,12.603c6.69-0.683,11.971-5.99,12.611-12.688l6.024-64.063
		c0.759-10.145,9.599-17.756,19.744-16.997c9.096,0.683,16.323,7.91,16.997,16.997l6.024,64.063
		c0.742,7.756,7.628,13.439,15.384,12.697c6.698-0.64,12.005-5.922,12.688-12.611l7.261-72.63l6.928-20.777
		c6.715-20.146,10.137-41.238,10.137-62.476C179.177,247.648,174.62,237.75,166.727,230.933z"/>
	<path style="fill:#DEDEDE;" d="M320.315,230.933c-19.744,68.048-86.572,99.371-123.902,111.837l7.116,71.188
		c0.785,7.748,7.713,13.396,15.461,12.603c6.69-0.683,11.971-5.99,12.611-12.688l6.024-64.063
		c0.759-10.145,9.599-17.756,19.744-16.997c9.096,0.683,16.323,7.91,16.997,16.997l6.024,64.063
		c0.742,7.756,7.628,13.439,15.384,12.697c6.698-0.64,12.005-5.922,12.688-12.611l7.261-72.63l6.928-20.777
		c6.715-20.146,10.137-41.238,10.137-62.476C332.764,247.648,328.207,237.75,320.315,230.933z"/>
	<path style="fill:#DEDEDE;" d="M473.902,230.933C454.157,298.981,387.33,330.304,350,342.77l7.116,71.188
		c0.785,7.748,7.714,13.396,15.461,12.603c6.69-0.683,11.971-5.99,12.611-12.688l6.024-64.063
		c0.759-10.145,9.599-17.756,19.745-16.997c9.096,0.683,16.323,7.91,16.997,16.997l6.024,64.063
		c0.742,7.756,7.628,13.439,15.384,12.697c6.698-0.64,12.005-5.922,12.688-12.611l7.261-72.63l6.928-20.777
		c6.715-20.146,10.137-41.238,10.137-62.476C486.351,247.648,481.795,237.75,473.902,230.933z"/>
</g>
<path d="M503.442,25.621H153.604c-4.71,0-8.533,3.823-8.533,8.533V153.61c0,3.234,1.826,6.195,4.719,7.637l34.13,17.065
	c2.398,1.203,5.23,1.203,7.628,0l30.316-15.162l30.316,15.205c2.398,1.203,5.231,1.203,7.628,0l30.316-15.205l30.316,15.205
	c2.398,1.203,5.23,1.203,7.628,0l34.13-17.065c2.91-1.451,4.736-4.428,4.719-7.679V76.817h136.522c4.71,0,8.533-3.823,8.533-8.533
	v-34.13C511.974,29.444,508.152,25.621,503.442,25.621z M162.137,76.817h17.065v80.053l-17.065-8.533V76.817z M315.724,156.87
	l-17.065-8.533v-71.52h17.065V156.87z M281.594,148.337l-17.065,8.533V76.817h17.065V148.337z M247.463,156.87l-17.065-8.533v-71.52
	h17.065V156.87z M213.333,148.337l-17.065,8.533V76.817h17.065V148.337z M349.855,148.337l-17.065,8.533V76.817h17.065V148.337z
	 M494.909,59.751H162.137V42.686h332.772V59.751z"/>
<path d="M21.349,212.195l8.533-14.779c-12.253-7.056-16.468-22.705-9.411-34.958c4.573-7.944,13.046-12.842,22.21-12.825
	c3.848,0.034,7.645,0.947,11.092,2.671c3.959,1.92,8.729,0.52,11.016-3.234c9.642-16.084,30.504-21.314,46.588-11.664
	c2.406,1.442,4.625,3.174,6.604,5.162l12.074-12.065c-19.89-19.958-52.186-20.009-72.135-0.119
	c-1.246,1.237-2.423,2.543-3.533,3.899c-3.797-1.126-7.739-1.698-11.707-1.707c-23.567,0-42.672,19.096-42.68,42.655
	C-0.009,190.48,8.132,204.576,21.349,212.195z"/>
<path d="M473.578,119.48c-8.012,0.017-15.828,2.56-22.321,7.253c-14.838-18.302-41.707-21.11-60.01-6.271
	c-4.062,3.294-7.475,7.295-10.086,11.818l14.778,8.533c7.065-12.244,22.714-16.451,34.958-9.386
	c4.829,2.782,8.618,7.074,10.794,12.202c1.195,2.807,3.797,4.753,6.826,5.12c3.046,0.393,6.067-0.922,7.867-3.413
	c3.976-5.529,10.376-8.806,17.193-8.789c11.784,0,21.332,9.548,21.332,21.332c0,2.79-0.546,5.563-1.613,8.14
	c-4.77-2.509-10.069-3.84-15.453-3.874c-18.849,0-34.13,15.282-34.13,34.13c0.034,6.075,1.707,12.022,4.838,17.227
	c-11.289,0.341-22.014,4.966-30.009,12.944c-5.017,4.787-12.901,4.787-17.918,0c-17.372-17.432-45.59-17.483-63.022-0.102
	c-1.758,1.749-3.37,3.652-4.812,5.666c-14.301-20.035-42.134-24.676-62.169-10.376c-2.022,1.442-3.916,3.055-5.666,4.812
	c-5.017,4.787-12.901,4.787-17.919,0c-17.372-17.432-45.59-17.483-63.022-0.102c-1.758,1.749-3.37,3.652-4.812,5.666
	c-14.301-20.035-42.134-24.676-62.169-10.376c-2.022,1.442-3.916,3.055-5.666,4.812c-5.017,4.787-12.901,4.787-17.919,0
	c-17.458-17.475-45.778-17.483-63.252-0.026c-8.396,8.396-13.115,19.779-13.115,31.656c-0.009,22.151,3.567,44.156,10.572,65.172
	l0.239,0.7c-0.768-0.06-1.502-0.282-2.278-0.282c-9.719,0-18.789,4.847-24.164,12.927c-0.93,1.408-1.433,3.055-1.433,4.736V477.85
	c0,4.71,3.823,8.533,8.533,8.533h494.892c4.71,0,8.533-3.823,8.533-8.533V341.328c0-1.681-0.503-3.328-1.433-4.736
	c-5.384-8.08-14.454-12.935-24.164-12.927c-0.776,0-1.51,0.222-2.278,0.282l0.239-0.708c7.005-21.007,10.58-43.013,10.572-65.164
	c-0.043-10.376-3.729-20.41-10.418-28.345c18.439-3.618,30.444-21.502,26.827-39.933c-0.845-4.318-2.526-8.43-4.94-12.116
	c11.024-18.021,5.35-41.554-12.662-52.578C487.648,121.4,480.677,119.454,473.578,119.48z M368.993,230.404
	c7.347-0.017,14.386,2.901,19.565,8.106c11.621,11.596,30.427,11.596,42.049,0c10.811-10.802,28.328-10.802,39.131,0
	c5.188,5.188,8.106,12.227,8.106,19.565c0,20.299-3.277,40.47-9.702,59.728l-6.928,20.785c-0.196,0.597-0.333,1.22-0.392,1.843
	l-7.261,72.63c-0.299,3.063-3.021,5.307-6.084,5.009c-2.654-0.256-4.761-2.355-5.009-5.009l-5.973-63.918
	c-1.084-14.847-13.993-26.007-28.84-24.924c-13.285,0.964-23.874,11.493-24.915,24.779l-6.024,64.071
	c-0.299,3.063-3.021,5.307-6.084,5.009c-2.654-0.256-4.761-2.355-5.009-5.009l-7.236-72.596c-0.06-0.623-0.196-1.246-0.393-1.843
	l-6.928-20.777c-6.442-19.275-9.736-39.455-9.744-59.78C341.339,242.802,353.711,230.429,368.993,230.404z M332.789,316.182
	c0.691,2.355,1.263,4.736,2.039,7.065l3.456,10.367c-3.643-0.589-7.355-0.589-10.999,0l3.464-10.376
	C331.527,320.909,332.098,318.537,332.789,316.182z M215.406,230.404c7.347-0.017,14.386,2.901,19.565,8.106
	c11.621,11.596,30.427,11.596,42.049,0c10.811-10.802,28.328-10.802,39.131,0c5.188,5.188,8.106,12.227,8.106,19.565
	c0,20.299-3.277,40.47-9.702,59.728l-6.928,20.785c-0.196,0.597-0.333,1.22-0.393,1.843l-7.261,72.63
	c-0.299,3.063-3.021,5.307-6.084,5.009c-2.654-0.256-4.761-2.355-5.009-5.009l-5.973-63.918
	c-1.084-14.847-13.993-26.007-28.84-24.924c-13.285,0.964-23.874,11.493-24.915,24.779l-6.024,64.071
	c-0.299,3.063-3.021,5.307-6.084,5.009c-2.654-0.256-4.761-2.355-5.009-5.009l-7.236-72.596c-0.06-0.623-0.196-1.246-0.393-1.843
	l-6.928-20.777c-6.442-19.275-9.736-39.455-9.744-59.78C187.752,242.802,200.124,230.429,215.406,230.404z M179.202,316.182
	c0.691,2.355,1.263,4.736,2.039,7.065l3.865,11.587c-3.908-0.708-7.901-0.708-11.809,0l3.865-11.596
	C177.939,320.909,178.511,318.537,179.202,316.182z M61.819,230.404c7.347-0.017,14.386,2.901,19.565,8.106
	c11.621,11.596,30.427,11.596,42.049,0c10.811-10.802,28.328-10.802,39.131,0c5.188,5.188,8.106,12.227,8.106,19.565
	c0,20.299-3.277,40.47-9.702,59.728l-6.928,20.785c-0.196,0.597-0.333,1.22-0.392,1.843l-7.261,72.63
	c-0.299,3.063-3.021,5.307-6.084,5.009c-2.654-0.256-4.761-2.355-5.009-5.009l-6.016-63.918
	c-1.084-14.847-13.993-26.007-28.84-24.924c-13.285,0.964-23.874,11.493-24.915,24.779l-6.024,64.071
	c-0.299,3.063-3.021,5.307-6.084,5.009c-2.654-0.256-4.761-2.355-5.009-5.009l-7.193-72.596c-0.06-0.623-0.196-1.246-0.393-1.843
	l-6.928-20.777c-6.442-19.275-9.736-39.455-9.744-59.78C34.165,242.802,46.537,230.429,61.819,230.404z M494.909,344.289v125.029
	H17.082V344.289c4.932-4.65,12.688-4.445,17.364,0.461l7.005,70.053c1.22,12.441,12.296,21.528,24.736,20.308
	c10.794-1.058,19.318-9.633,20.316-20.436l6.041-64.208c0.427-5.452,5.196-9.514,10.649-9.087c4.906,0.384,8.78,4.318,9.096,9.232
	l6.024,64.054c1.152,12.441,12.168,21.605,24.617,20.453c10.802-0.998,19.378-9.522,20.436-20.316l5.973-59.873
	c5.725-4.701,13.968-4.701,19.693,0l5.973,59.873c1.22,12.441,12.296,21.528,24.736,20.308c10.794-1.058,19.318-9.633,20.316-20.436
	l6.041-64.208c0.435-5.452,5.196-9.514,10.649-9.087c4.906,0.384,8.78,4.318,9.096,9.232l6.024,64.054
	c1.152,12.441,12.168,21.605,24.617,20.453c10.802-0.998,19.378-9.522,20.436-20.316l6.144-61.435
	c5.725-4.369,13.661-4.369,19.386,0l6.143,61.435c1.22,12.441,12.296,21.528,24.736,20.308c10.794-1.058,19.318-9.633,20.316-20.436
	l6.041-64.208c0.435-5.452,5.196-9.514,10.649-9.087c4.906,0.384,8.78,4.318,9.096,9.232l6.024,64.054
	c1.152,12.441,12.168,21.605,24.617,20.453c10.802-0.998,19.378-9.522,20.436-20.316l7.005-70.061
	C482.196,339.826,489.969,339.63,494.909,344.289z M477.844,213.339c-9.429,0-17.065-7.637-17.065-17.065
	s7.637-17.065,17.065-17.065c9.429,0,17.065,7.637,17.065,17.065S487.264,213.339,477.844,213.339z"/>
<path d="M17.082,59.751c0,18.849,15.282,34.13,34.13,34.13s34.13-15.282,34.13-34.13s-15.282-34.13-34.13-34.13
	S17.082,40.903,17.082,59.751z M68.278,59.751c0,9.429-7.637,17.065-17.065,17.065S34.148,69.18,34.148,59.751
	s7.637-17.065,17.065-17.065S68.278,50.331,68.278,59.751z"/>
<path d="M76.811,179.208c0,14.139,11.459,25.598,25.598,25.598s25.598-11.459,25.598-25.598c0-14.139-11.459-25.598-25.598-25.598
	S76.811,165.078,76.811,179.208z M110.941,179.208c0,4.71-3.823,8.533-8.533,8.533s-8.533-3.823-8.533-8.533
	c0-4.71,3.823-8.533,8.533-8.533S110.941,174.498,110.941,179.208z"/>
<path d="M51.648,292.829l16.212-5.393l-2.5-7.5c-2.09-6.357,0.776-13.285,6.749-16.297l-7.645-15.316
	c-13.55,6.835-20.077,22.543-15.359,36.972L51.648,292.829z"/>
<path d="M205.235,292.829l16.212-5.393l-2.5-7.5c-2.09-6.357,0.776-13.285,6.749-16.297l-7.628-15.273
	c-13.55,6.835-20.077,22.543-15.359,36.972L205.235,292.829z"/>
<path d="M358.822,292.829l16.212-5.393l-2.5-7.5c-2.09-6.357,0.776-13.285,6.749-16.297l-7.628-15.273
	c-13.533,6.852-20.043,22.56-15.316,36.972L358.822,292.829z"/>
<g>
</g>
<g>
</g>
<g>
</g>
<g>
</g>
<g>
</g>
<g>
</g>
<g>
</g>
<g>
</g>
<g>
</g>
<g>
</g>
<g>
</g>
<g>
</g>
<g>
</g>
<g>
</g>
<g>
</g>
</svg>
