<svg id="Capa_1" enable-background="new 0 0 497.003 497.003" height="512" viewBox="0 0 497.003 497.003" width="512" xmlns="http://www.w3.org/2000/svg"><g><path d="m412.886 44.456-66.427-9.389c-33.069-4.674-66.012 9.314-85.616 36.353-6.086 8.395-18.596 8.395-24.682 0-19.603-27.039-52.547-41.027-85.616-36.353l-66.427 9.389c-5.768.815-11.349 2.119-16.705 3.863 0 0-2.513 1.099-3.815 1.586-41.59 15.552-67.255 58.136-61.415 103.979 1.745 13.702 13.005 22.809 26.818 22.809l439.608.043c3.178 0 5.474-.368 8.33-1.372 1.167-.41 4.539-.751 4.539-.751 7.842-4.013 13.551-11.706 14.731-20.967 6.758-53.06-30.363-101.704-83.323-109.19z" fill="#e27f86"/><path d="m479.283 154.701-1.24-8.06c-3.27-21.28-21.28-36.73-42.81-36.73-11.614 0-22.193 4.5-29.99 11.981-1.56 1.496-4.001 1.497-5.561.001-7.805-7.482-18.384-11.982-29.999-11.982-12.983 0-24.687 5.621-32.652 14.753-1.479 1.696-4.064 1.859-5.71.326-10.129-9.433-23.724-15.079-38.607-15.079-16.234 0-30.941 6.714-41.301 17.738-1.579 1.68-4.239 1.68-5.819 0-10.36-11.024-25.067-17.738-41.301-17.738-14.885 0-28.473 5.655-38.615 15.091-1.647 1.532-4.232 1.367-5.71-.329-7.958-9.134-19.662-14.762-32.645-14.762-11.616 0-22.195 4.501-30 11.976-1.56 1.494-3.999 1.493-5.558-.001-7.798-7.475-18.377-11.975-29.992-11.975-17.657-.134-33.136 10.772-39.876 26.458-.869 2.022-3.897 1.329-3.831-.871 1.09-36.672 20.291-69.571 49.434-87.207-43.87 14.23-72.728 58.04-66.708 105.35.87 6.86 4.23 12.85 9.09 17.13 4.264 3.601 10.822 6.98 18.13 6.84h18 422.98c4.48 0 8.735-1.07 12.485-3-.439-6.669-1.184-13.33-2.194-19.91z" fill="#df646e"/><path d="m476.375 380.033-455.128-.702c-11.046 0-20-8.954-20-20l-.351-68.085c0-7.518 3.666-13.562 9.798-16.979 1.469-.818 4.307-2.83 4.307-2.83 1.598-.411 3.274-.63 5.001-.63h457c11.046 0 20 8.954 20 20v70c0 1.728-.219 3.405-.631 5.005 0 0-3.288 4.344-4.784 6.371-3.641 4.936-8.607 7.85-15.212 7.85z" fill="#b9c3cd"/><g><path d="m369.685 123.915c-4.331 0-8.468.946-12.198 2.654 0 0-2.67 2.166-3.96 3.027-6.646 4.437-10.326 11.044-11.617 19.436l-3.83 24.422-.106 33.429c0 8.284 6.716 15 15 15l33.915.596c7.458 0 13.785-5.06 15.037-12.106.139-.781.531-2.378.531-2.378v-34.54l-3.797-24.682c-2.199-14.3-14.505-24.858-28.975-24.858z" fill="#f9f8f9"/><path d="m402.458 207.991c0 8.29-6.72 15-15 15h-35.55c-8.28 0-15-6.71-15-15l-2.146-16.192 2.146-18.348 3.8-24.68c1.54-10.02 8.039-18.201 16.779-22.201l-3.709 31.941c-1.24 10.72-1.87 21.5-1.87 32.29v8.19c0 4.97 4.03 9 9 9z" fill="#e8e8e8"/></g><path d="m496.371 365.811c-2.22 8.62-10.049 15-19.369 15h-457c-11.05 0-20-8.96-20-20v-70c0-9.32 6.369-17.155 14.999-19.374l.001 85.374c0 4.97 4.03 9 9 9z" fill="#a2abb8"/><path d="m198.843 300.811 4.922 25.315-4.922 24.685h-80.45l-5.741-25.005 5.741-24.995z" fill="#e8e8e8"/><path d="m377.613 300.811 6.017 24.995-6.017 25.005h-89.39l-5.359-24.685 5.359-25.315z" fill="#ffe07d"/><path d="m236.038 415.246-22.28 33.149c-4.044 5.924-.766 14.203 6.406 14.203l.149.227h46.547c7.172 0 11.414-8.032 7.37-13.956l-22.198-32.517-1.252-1.106c-3.544-5.19-11.199-5.19-14.742 0z" fill="#b9c3cd"/><path d="m252.032 416.352-31.719 46.473-.11-.003c-7.17 0-11.41-8.03-7.37-13.95l23.33-34.17c3.54-5.19 11.2-5.19 14.74 0z" fill="#a2abb8"/><path d="m118.393 300.811v50h-83.39c-2.76 0-5-2.24-5-5v-40c0-2.77 2.24-5 5-5z" fill="#dcdbdd"/><path d="m198.843 300.811h89.38v50h-89.38z" fill="#f9f8f9"/><path d="m467.003 305.811v40c0 2.76-2.24 5-5 5h-84.39v-50h84.39c2.76 0 5 2.23 5 5z" fill="#ffd064"/><g><path d="m292.705 123.915c-11.211 0-21.529 4.357-29.208 11.573 0 0-1.643 3.069-2.694 4.311-4.936 5.831-7.98 12.517-9.213 20.532l-2.043 13.316v39.726c-1.048 8.093 6.077 16.34 14.362 16.34l56.723.128c7.664 0 14.816-5.126 15.883-12.447.086-.592.394-1.777.394-1.777v-42.162l-2.059-13.382c-3.199-20.802-21.098-36.158-42.145-36.158z" fill="#f9f8f9"/><path d="m336.91 215.621c0 8.28-6.72 15-15 15h-58.41c-8.284 0-15-6.716-15-15v-7.626l-3.952-15.303 3.952-19.242 2.06-13.38c1.5-9.72 6.197-18.253 12.937-24.583l.003 72.133c0 4.418 3.582 8 8 8h65.41z" fill="#e8e8e8"/></g><g><path d="m204.298 123.915c-11.211 0-21.529 4.357-29.208 11.573 0 0-1.643 3.069-2.694 4.311-4.936 5.831-7.98 12.517-9.213 20.532l-2.043 13.316v39.726c-1.048 8.093 6.077 16.34 14.362 16.34l56.723.128c7.664 0 14.816-5.126 15.883-12.447.086-.592.394-1.777.394-1.777v-42.162l-2.059-13.382c-3.2-20.802-21.099-36.158-42.145-36.158z" fill="#f9f8f9"/><path d="m248.503 215.621c0 8.28-6.72 15-15 15h-58.41c-8.284 0-15-6.716-15-15v-7.626l-3.952-15.303 3.952-19.242 2.06-13.38c1.5-9.72 6.197-18.253 12.937-24.583l.003 72.133c0 4.418 3.582 8 8 8h65.41z" fill="#e8e8e8"/></g><g><path d="m127.32 123.915c-4.331 0-8.468.946-12.198 2.654 0 0-2.67 2.166-3.96 3.027-6.646 4.437-10.326 11.044-11.617 19.436l-3.83 24.422-.106 33.429c0 8.284 6.716 15 15 15l33.915.596c7.458 0 13.785-5.06 15.037-12.106.139-.781.531-2.378.531-2.378v-34.54l-3.797-24.682c-2.2-14.3-14.506-24.858-28.975-24.858z" fill="#f9f8f9"/><path d="m160.093 207.991c0 8.29-6.72 15-15 15h-35.55c-8.28 0-15-6.71-15-15l-2.146-16.192 2.146-18.348 3.8-24.68c1.54-10.02 8.039-18.201 16.779-22.201l-3.709 31.941c-1.24 10.72-1.87 21.5-1.87 32.29v8.19c0 4.97 4.03 9 9 9z" fill="#e8e8e8"/></g><g><path d="m61.774 123.915c-4.736 0-9.239 1.131-13.233 3.153 0 0-1.552 2.002-2.454 2.592-6.767 4.426-10.598 10.798-11.904 19.287l-1.791 10.428c-1.471 9.56-2.209 19.218-2.209 28.891l.092 24.101c0 5.835 3.384 11.14 8.674 13.601l13.18 6.298c6.114 2.844 13.171 2.844 19.285 0l13.747-6.468c5.291-2.461 8.511-6.144 8.511-11.979l.874-6.269v-34.096l-3.797-24.682c-2.199-14.299-14.505-24.857-28.975-24.857z" fill="#f9f8f9"/><path d="m94.543 207.551v5.88c0 5.83-3.38 11.14-8.67 13.6l-14.46 6.72c-6.11 2.85-13.17 2.85-19.28 0l-14.46-6.72c-5.29-2.46-8.67-7.77-8.67-13.6v-25.45c0-9.67.74-19.33 2.21-28.89l1.59-10.32c1.48-9.62 7.529-17.553 15.739-21.702l-1.898 25.958c-.346 4.729-.84 9.444-1.403 14.152-.824 6.898-1.238 13.872-1.238 20.803v20.346c0 3.113 1.806 5.943 4.628 7.255l9.832 4.569c1.04.49 2.16.74 3.31.74 1.16 0 2.27-.25 3.32-.74z" fill="#e8e8e8"/></g><g><path d="m434.686 123.915c-4.736 0-9.239 1.131-13.233 3.153 0 0-1.552 2.002-2.454 2.592-6.767 4.426-10.598 10.798-11.904 19.287l-1.791 10.428c-1.471 9.56-2.209 19.218-2.209 28.891l.092 24.101c0 5.835 3.384 11.14 8.674 13.601l13.18 6.298c6.114 2.844 13.171 2.844 19.285 0l13.747-6.468c5.291-2.461 8.511-6.144 8.511-11.979l.874-6.269v-18.036c0-10.691-.816-21.366-2.442-31.932l-1.355-8.809c-2.199-14.3-14.505-24.858-28.975-24.858z" fill="#f9f8f9"/><path d="m467.455 207.551v5.88c0 5.83-3.38 11.14-8.67 13.6l-14.46 6.72c-6.11 2.85-13.17 2.85-19.28 0l-14.46-6.72c-5.29-2.46-8.67-7.77-8.67-13.6v-25.45c0-9.67.74-19.33 2.21-28.89l1.59-10.32c1.48-9.62 7.529-17.553 15.739-21.702l-1.898 25.958c-.346 4.729-.84 9.444-1.403 14.152-.824 6.898-1.238 13.872-1.238 20.803v20.346c0 3.113 1.806 5.943 4.628 7.255l9.832 4.569c1.04.49 2.16.74 3.31.74 1.16 0 2.27-.25 3.32-.74z" fill="#e8e8e8"/></g></g></svg>