<svg id="_x31__x2C_5" height="512" viewBox="0 0 24 24" width="512" xmlns="http://www.w3.org/2000/svg"><path d="m.75 7v-2.8c0-.865.552-1.647 1.378-1.902 6.695-2.064 13.049-2.064 19.744 0 .826.255 1.378 1.037 1.378 1.902v2.8z" fill="#ef5350"/><g fill="#cfd8dc"><path d="m14.5 9.25h-5v-2c0-1.381 1.119-2.5 2.5-2.5 1.381 0 2.5 1.119 2.5 2.5z"/><path d="m19.5 9.25h-5v-2c0-1.381 1.119-2.5 2.5-2.5 1.381 0 2.5 1.119 2.5 2.5z"/><path d="m9.5 9.25h-5v-2c0-1.381 1.119-2.5 2.5-2.5 1.381 0 2.5 1.119 2.5 2.5z"/><path d="m1.75 9.25h2.75v-2c0-.69-.28-1.31-.73-1.77-.45-.45-1.08-.73-1.77-.73-.46 0-.89.12-1.25.34v3.16c0 .552.448 1 1 1z"/><path d="m23.25 5.09c-.36-.22-.79-.34-1.25-.34-.69 0-1.32.28-1.77.73-.45.46-.73 1.08-.73 1.77v2h2.75c.552 0 1-.448 1-1z"/></g><path d="m.75 17.239v2.561c0 .865.552 1.647 1.378 1.902 6.695 2.064 13.049 2.064 19.744 0 .826-.255 1.378-1.037 1.378-1.902v-2.562h-22.5z" fill="#ef5350"/><path d="m13.5 14.75h-4v2c0 1.381 1.119 2.5 2.5 2.5 1.381 0 2.5-1.119 2.5-2.5v-1c0-.552-.448-1-1-1z" fill="#cfd8dc"/><path d="m19.85 18.03c.01.03.01.05.01.08 0 1.1-.74 2.11-1.86 2.41-1.33.36-2.7-.43-3.06-1.77l-.26-.96c-.14-.54.17-1.09.71-1.23l2.9-.78c.52-.14 1.06.17 1.21.68z" fill="#cfd8dc"/><path d="m9.5 14.75h-5v2c0 1.381 1.119 2.5 2.5 2.5 1.381 0 2.5-1.119 2.5-2.5z" fill="#cfd8dc"/><path d="m.75 15.75v3.16c.36.22.79.34 1.25.34.69 0 1.32-.28 1.77-.73.45-.46.73-1.08.73-1.77v-2h-2.75c-.552 0-1 .448-1 1z" fill="#cfd8dc"/><path d="m23.25 15.75c0-.552-.448-1-1-1h-1.75c-.552 0-1 .448-1 1v1c0 .69.28 1.31.73 1.77.45.45 1.08.73 1.77.73.46 0 .89-.12 1.25-.34z" fill="#cfd8dc"/><path d="m23.25 5.75c-.414 0-.75-.336-.75-.75v-.8c0-.543-.35-1.031-.849-1.185-6.585-2.029-12.718-2.029-19.303 0-.498.154-.848.641-.848 1.185v.8c0 .414-.336.75-.75.75s-.75-.336-.75-.75v-.8c0-1.195.784-2.272 1.907-2.619 6.885-2.122 13.301-2.122 20.186 0 1.123.347 1.907 1.423 1.907 2.619v.8c0 .414-.336.75-.75.75z"/><path d="m14.5 10h-5c-.414 0-.75-.336-.75-.75v-2c0-1.792 1.458-3.25 3.25-3.25s3.25 1.458 3.25 3.25v2c0 .414-.336.75-.75.75zm-4.25-1.5h3.5v-1.25c0-.965-.785-1.75-1.75-1.75s-1.75.785-1.75 1.75z"/><path d="m19.5 10h-5c-.414 0-.75-.336-.75-.75v-2c0-1.792 1.458-3.25 3.25-3.25s3.25 1.458 3.25 3.25v2c0 .414-.336.75-.75.75zm-4.25-1.5h3.5v-1.25c0-.965-.785-1.75-1.75-1.75s-1.75.785-1.75 1.75z"/><path d="m9.5 10h-5c-.414 0-.75-.336-.75-.75v-2c0-1.792 1.458-3.25 3.25-3.25s3.25 1.458 3.25 3.25v2c0 .414-.336.75-.75.75zm-4.25-1.5h3.5v-1.25c0-.965-.785-1.75-1.75-1.75s-1.75.785-1.75 1.75z"/><path d="m4.5 10h-2.75c-.965 0-1.75-.785-1.75-1.75v-3.16c0-.262.137-.504.359-.64 1.185-.723 2.925-.519 3.941.5.615.628.95 1.443.95 2.3v2c0 .414-.336.75-.75.75zm-3-4.429v2.679c0 .138.112.25.25.25h2v-1.25c0-.463-.184-.905-.517-1.246-.437-.438-1.155-.604-1.733-.433z"/><path d="m22.25 10h-2.75c-.414 0-.75-.336-.75-.75v-2c0-.857.335-1.672.944-2.294 1.025-1.028 2.763-1.229 3.946-.506.223.135.36.378.36.64v3.16c0 .965-.785 1.75-1.75 1.75zm-2-1.5h2c.138 0 .25-.112.25-.25v-2.679c-.576-.171-1.294-.006-1.738.439-.328.335-.512.777-.512 1.24z"/><path d="m12 24.011c-3.325 0-6.65-.531-10.093-1.592-1.123-.347-1.907-1.423-1.907-2.619v-.8c0-.414.336-.75.75-.75s.75.336.75.75v.8c0 .543.35 1.031.849 1.185 6.585 2.03 12.718 2.03 19.303 0 .498-.154.848-.641.848-1.185v-.8c0-.414.336-.75.75-.75s.75.336.75.75v.8c0 1.195-.784 2.272-1.907 2.619-3.443 1.061-6.768 1.592-10.093 1.592z"/><path d="m12 20c-1.792 0-3.25-1.458-3.25-3.25v-2c0-.414.336-.75.75-.75h4c.965 0 1.75.785 1.75 1.75v1c0 1.792-1.458 3.25-3.25 3.25zm-1.75-4.5v1.25c0 .965.785 1.75 1.75 1.75s1.75-.785 1.75-1.75v-1c0-.138-.112-.25-.25-.25z"/><path d="m17.346 21.358c-.559 0-1.111-.146-1.609-.433-.754-.434-1.294-1.137-1.521-1.98l-.26-.958c-.246-.949.314-1.911 1.245-2.153l2.894-.778c.909-.245 1.859.291 2.125 1.192.117.397-.11.814-.508.932-.393.12-.813-.11-.932-.507-.036-.123-.172-.201-.296-.168l-2.899.78c-.141.037-.216.175-.179.318l.258.951c.123.458.414.837.82 1.071.403.233.873.293 1.319.171.756-.202 1.286-.874 1.306-1.642-.059-.353.141-.707.489-.831.392-.138.819.066.958.456.028.081.054.246.054.331 0 1.465-.994 2.754-2.416 3.135-.28.075-.565.113-.848.113z"/><path d="m7 20c-1.792 0-3.25-1.458-3.25-3.25v-2c0-.414.336-.75.75-.75h5c.414 0 .75.336.75.75v2c0 1.792-1.458 3.25-3.25 3.25zm-1.75-4.5v1.25c0 .965.785 1.75 1.75 1.75s1.75-.785 1.75-1.75v-1.25z"/><path d="m2 20c-.591 0-1.158-.155-1.641-.45-.222-.135-.359-.378-.359-.64v-3.16c0-.965.785-1.75 1.75-1.75h2.75c.414 0 .75.336.75.75v2c0 .857-.335 1.672-.944 2.294-.608.61-1.447.956-2.306.956zm-.5-1.571c.578.173 1.294.007 1.738-.438.328-.335.512-.777.512-1.24v-1.251h-2c-.138 0-.25.112-.25.25z"/><path d="m22 20c-.859 0-1.698-.346-2.301-.95-.614-.627-.949-1.442-.949-2.3v-1c0-.965.785-1.75 1.75-1.75h1.75c.965 0 1.75.785 1.75 1.75v3.16c0 .262-.137.504-.359.64-.483.295-1.05.45-1.641.45zm1.25-1.09h.01zm-2.75-3.41c-.138 0-.25.112-.25.25v1c0 .463.184.905.517 1.246.438.438 1.157.606 1.733.433v-2.679c0-.138-.112-.25-.25-.25z"/></svg>