<svg id="Flat" height="512" viewBox="0 0 512 512" width="512" xmlns="http://www.w3.org/2000/svg"><path d="m24 40s192 112 232 112h232v304h-464z" fill="#fc9495"/><path d="m488 152v32h-232c-40 0-232-104-232-104v-40s192 112 232 112z" fill="#ea898a"/><g fill="#e8edf1"><path d="m288.514 294.953c-21.262 23.915-43.851 25.241-81.06 67.092s-65.113 49.156-71.091 43.84c-11.958-10.631 3.989-28.567 30.567-58.46 0 0 21.262-23.915 9.305-34.546s-33.22 13.283-33.22 13.283c-26.578 29.894-42.525 47.83-54.482 37.2-5.979-5.316-1.989-33.883 35.22-75.734s35.882-64.439 57.145-88.354 61.123-20.59 67.102-15.274 13.284 33.22 13.284 33.22 28.567 3.989 34.546 9.305 13.946 44.513-7.316 68.428z"/><path d="m432 128c0 32-16 48-16 104s-16 80-24 80c-16 0-16-24-16-64 0 0 0-32-16-32s-16 32-16 32c0 40 0 64-16 64-8 0-24-24-24-80s-16-72-16-104 32-56 40-56 32 16 32 16 24-16 32-16 40 24 40 56z"/></g></svg>